<svg width="50" height="50" viewBox="0 0 50 50" fill="none" xmlns="http://www.w3.org/2000/svg">
<path d="M45.1765 0.404053C42.7925 0.404053 40.8529 2.34359 40.8529 4.72758C40.8529 8.17113 38.0514 10.9727 34.6078 10.9727H34.3577C35.1198 9.88238 35.5686 8.55775 35.5686 7.12954C35.5686 3.42111 32.5516 0.404053 28.8431 0.404053C25.1347 0.404053 22.1176 3.42111 22.1176 7.12954C22.1176 8.55775 22.5665 9.88238 23.3286 10.9727H18.0243C18.7864 9.88238 19.2353 8.55775 19.2353 7.12954C19.2353 3.42111 16.2182 0.404053 12.5098 0.404053C8.80137 0.404053 5.78431 3.42111 5.78431 7.12954C5.78431 8.79257 6.39239 10.3154 7.39613 11.4906C3.39311 12.8293 0.5 16.6134 0.5 21.0609V29.708C0.5 31.5622 2.00853 33.0707 3.86275 33.0707H5.30392V48.155C5.30392 48.951 5.94918 49.5962 6.7451 49.5962H18.2745C19.0704 49.5962 19.7157 48.951 19.7157 48.155V33.0358C19.8727 33.0584 20.0329 33.0707 20.1961 33.0707H21.6373V48.155C21.6373 48.951 22.2825 49.5962 23.0784 49.5962H34.6078C35.4038 49.5962 36.049 48.951 36.049 48.155V19.5506C43.5869 18.8233 49.5 12.453 49.5 4.72758C49.5 2.34359 47.5605 0.404053 45.1765 0.404053ZM28.8431 3.28641C30.9622 3.28641 32.6863 5.01044 32.6863 7.12954C32.6863 9.24865 30.9622 10.9727 28.8431 10.9727C26.724 10.9727 25 9.24865 25 7.12954C25 5.01044 26.724 3.28641 28.8431 3.28641ZM12.5098 3.28641C14.6289 3.28641 16.3529 5.01044 16.3529 7.12954C16.3529 9.24865 14.6289 10.9727 12.5098 10.9727C10.3907 10.9727 8.66667 9.24865 8.66667 7.12954C8.66667 5.01044 10.3907 3.28641 12.5098 3.28641ZM16.8333 46.7139H13.951V34.5119C13.951 33.716 13.3057 33.0707 12.5098 33.0707C11.7139 33.0707 11.0686 33.716 11.0686 34.5119V46.7139H8.18627V31.6295C8.18627 30.8336 7.54101 30.1884 6.7451 30.1884H3.86275C3.59786 30.1884 3.38235 29.9729 3.38235 29.708V21.0609C3.38235 17.0876 6.61491 13.855 10.5882 13.855H19.869C17.9971 15.6875 16.8333 18.2406 16.8333 21.0609V46.7139ZM34.6078 16.7374C33.8119 16.7374 33.1667 17.3827 33.1667 18.1786V46.7139H30.2843V34.5119C30.2843 33.716 29.6391 33.0707 28.8431 33.0707C28.0472 33.0707 27.402 33.716 27.402 34.5119V46.7139H24.5196V31.6295C24.5196 30.8336 23.8743 30.1884 23.0784 30.1884H20.1961C19.9312 30.1884 19.7157 29.9729 19.7157 29.708V21.0609C19.7157 17.0876 22.9482 13.855 26.9216 13.855H34.6078C39.6407 13.855 43.7353 9.76046 43.7353 4.72758C43.7353 3.93292 44.3818 3.28641 45.1765 3.28641C45.9711 3.28641 46.6176 3.93292 46.6176 4.72758C46.6176 11.3498 41.23 16.7374 34.6078 16.7374Z" fill="white"/>
</svg>
