<svg width="70" height="74" viewBox="0 0 42 44" fill="none" xmlns="http://www.w3.org/2000/svg">
<path d="M17.5834 16.8438C17.5834 14.9483 16.0413 13.4062 14.1459 13.4062H11.5678C11.0931 13.4062 10.7084 13.7911 10.7084 14.2656V24.5781C10.7084 25.0527 11.0931 25.4375 11.5678 25.4375C12.0424 25.4375 12.4271 25.0527 12.4271 24.5781V21.4967L16.1163 25.1859C16.4519 25.5214 16.9961 25.5214 17.3317 25.1859C17.6673 24.8503 17.6673 24.3061 17.3317 23.9705L13.6425 20.2812H14.1459C16.0413 20.2812 17.5834 18.7392 17.5834 16.8438ZM12.4271 15.125H14.1459C15.0936 15.125 15.8646 15.896 15.8646 16.8438C15.8646 17.7915 15.0936 18.5625 14.1459 18.5625H12.4271V15.125Z" fill="white"/>
<path d="M27.0159 24.5781V20.2812H28.7346C30.6301 20.2812 32.1721 18.7392 32.1721 16.8438C32.1721 14.9483 30.6301 13.4062 28.7346 13.4062H26.1565C25.6819 13.4062 25.2971 13.7911 25.2971 14.2656V24.5781C25.2971 25.0527 25.6819 25.4375 26.1565 25.4375C26.6311 25.4375 27.0159 25.0527 27.0159 24.5781ZM27.0159 15.125H28.7346C29.6823 15.125 30.4534 15.896 30.4534 16.8438C30.4534 17.7915 29.6823 18.5625 28.7346 18.5625H27.0159V15.125Z" fill="white"/>
<path d="M21.8596 24.5781V14.2656C21.8596 13.7911 21.4749 13.4062 21.0003 13.4062C20.5256 13.4062 20.1409 13.7911 20.1409 14.2656V24.5781C20.1409 25.0527 20.5256 25.4375 21.0003 25.4375C21.4749 25.4375 21.8596 25.0527 21.8596 24.5781Z" fill="white"/>
<path d="M11.5678 33.4297H30.4328C30.9074 33.4297 31.2921 33.0449 31.2921 32.5703C31.2921 32.0958 30.9074 31.7109 30.4328 31.7109H11.5678C11.0931 31.7109 10.7084 32.0958 10.7084 32.5703C10.7084 33.0449 11.0931 33.4297 11.5678 33.4297Z" fill="white"/>
<path d="M11.5678 38.5859H30.4328C30.9074 38.5859 31.2921 38.2011 31.2921 37.7266C31.2921 37.252 30.9074 36.8672 30.4328 36.8672H11.5678C11.0931 36.8672 10.7084 37.252 10.7084 37.7266C10.7084 38.2011 11.0931 38.5859 11.5678 38.5859Z" fill="white"/>
<path d="M40.3809 42.2812H37.844V8.59375C37.844 8.1192 37.4593 7.73438 36.9846 7.73438H36.0831C34.5507 7.73438 33.07 6.92974 32.021 5.52698C29.4988 2.15093 25.4852 0 21.0003 0C16.5263 0 12.5083 2.14208 9.9798 5.52673C8.9305 6.92974 7.4498 7.73438 5.91736 7.73438H5.01588C4.54125 7.73438 4.1565 8.1192 4.1565 8.59375V42.2812H1.61963C1.145 42.2812 0.760254 42.6661 0.760254 43.1406C0.760254 43.6152 1.145 44 1.61963 44H25.9331C26.4077 44 26.7924 43.6152 26.7924 43.1406C26.7924 42.6661 26.4077 42.2812 25.9331 42.2812H5.87525V9.45312H5.91736C7.99688 9.45312 9.97929 8.39721 11.3564 6.55574C13.6529 3.48176 17.168 1.71875 21.0003 1.71875C24.8326 1.71875 28.3476 3.48176 30.6443 6.55609C32.0212 8.39721 34.0036 9.45312 36.0831 9.45312H36.1253V42.2812H24.8674C24.3928 42.2812 24.0081 42.6661 24.0081 43.1406C24.0081 43.6152 24.3928 44 24.8674 44H40.3809C40.8555 44 41.2403 43.6152 41.2403 43.1406C41.2403 42.6661 40.8555 42.2812 40.3809 42.2812Z" fill="white"/>
</svg>
