<svg width="70" height="46" viewBox="0 0 70 46" fill="none" xmlns="http://www.w3.org/2000/svg">
<path d="M11.6666 21.8334C5.22318 21.8334 0 27.0572 0 33.5C0 39.9434 5.22318 45.1665 11.6666 45.1665C18.11 45.1665 23.3331 39.9434 23.3331 33.5C23.3263 27.06 18.1071 21.8408 11.6666 21.8334ZM11.6666 42.8332C6.51175 42.8332 2.33331 38.6548 2.33331 33.5C2.33331 28.3457 6.51175 24.1667 11.6666 24.1667C16.8214 24.1667 20.9998 28.3457 20.9998 33.5C20.9941 38.6525 16.8185 42.8275 11.6666 42.8332Z" fill="white"/>
<path d="M11.6667 28.8333C9.08959 28.8333 7.00007 30.9228 7.00007 33.5C7.00007 36.0777 9.08959 38.1666 11.6667 38.1666C14.2439 38.1666 16.3334 36.0777 16.3334 33.5C16.3334 30.9228 14.2439 28.8333 11.6667 28.8333ZM11.6667 35.8333C10.3782 35.8333 9.3334 34.7891 9.3334 33.5C9.3334 32.2114 10.3782 31.1666 11.6667 31.1666C12.9553 31.1666 14.0001 32.2114 14.0001 33.5C14.0001 34.7891 12.9553 35.8333 11.6667 35.8333Z" fill="white"/>
<path d="M58.3326 21.8333C56.9654 21.8362 55.609 22.0811 54.3273 22.5568L53.3173 20.457C54.7762 19.8948 56.3183 19.5798 57.8808 19.5234C57.9908 19.5234 58.0979 19.5074 58.209 19.5063C60.5246 19.4812 62.8101 20.0338 64.8591 21.1139C65.4282 21.4067 66.1272 21.1862 66.4251 20.6194C66.723 20.0526 66.5089 19.3519 65.9449 19.0488C63.6167 17.8235 61.0253 17.1826 58.3947 17.1821C58.3724 17.1821 58.3548 17.1695 58.3326 17.1695C58.2916 17.1695 58.2534 17.1695 58.2158 17.1695C58.0084 17.1695 57.8017 17.1918 57.5943 17.2009C55.7788 17.2789 53.9895 17.6623 52.301 18.3334L50.3921 14.3589C51.454 14.6779 52.5574 14.8379 53.6659 14.8334C54.3102 14.8334 54.8326 14.3116 54.8326 13.6667V4.33347C54.8326 3.68919 54.3102 3.16681 53.6659 3.16681C50.931 3.02611 48.2816 4.1432 46.4735 6.20023L44.2159 1.49544C44.0222 1.09155 43.6138 0.834635 43.166 0.833496H36.1661C35.5218 0.833496 34.9994 1.35587 34.9994 2.00015C34.9994 2.64501 35.5218 3.16681 36.1661 3.16681H42.4323L44.1122 6.66678H34.5887C31.4653 6.67077 28.6483 8.54437 27.4372 11.4234C27.2407 11.367 27.0373 11.3368 26.8328 11.3334H8.16631C5.58918 11.3334 3.49968 13.4229 3.49968 16C3.50538 17.2231 4.45443 18.2342 5.67406 18.3174C4.21688 18.8865 2.84913 19.6641 1.61412 20.6251C1.10655 21.0221 1.01655 21.7553 1.4136 22.2628C1.81065 22.7704 2.5438 22.8604 3.05193 22.4634C7.27024 19.1708 12.997 18.5703 17.8066 20.9179C22.6157 23.2649 25.6667 28.1485 25.6662 33.4999V35.0368C25.5272 35.9266 25.7619 36.8341 26.315 37.545C26.7673 37.974 27.3763 38.199 27.9995 38.1665H40.8327C41.767 38.1876 42.6699 37.8259 43.3307 37.1645C43.9915 36.5037 44.3538 35.6014 44.3327 34.6666V33.4999C44.3304 31.1894 44.9041 28.9142 46.0012 26.8805C46.0781 26.7369 46.1664 26.6042 46.2484 26.4641C47.2772 24.7016 48.6763 23.1834 50.3494 22.0145C50.4086 21.9735 50.4656 21.9268 50.522 21.8874C50.6582 21.7952 50.804 21.7183 50.943 21.6317C51.033 21.5758 51.1247 21.5223 51.2159 21.467L52.2287 23.5765C47.2875 26.635 45.3575 32.8687 47.7073 38.1842C50.0566 43.4991 55.9656 46.2682 61.5534 44.6726C67.1412 43.077 70.697 37.6054 69.8858 31.8507C69.074 26.0966 64.1436 21.8219 58.3326 21.8333ZM47.8327 9.0001C47.8327 7.34126 49.8732 5.90857 52.4993 5.57418V12.4266C51.0786 12.2961 49.737 11.7157 48.6689 10.77L47.8384 9.03997C47.8384 9.0263 47.8327 9.0132 47.8327 9.0001ZM34.5887 9.0001H44.7782L48.2781 16H30.7435C29.8725 15.9995 29.1667 15.2937 29.1661 14.4232C29.1696 11.4297 31.5952 9.00352 34.5887 9.0001ZM8.16631 13.6667H26.8328V16H5.83299C5.83299 14.7115 6.87775 13.6667 8.16631 13.6667ZM41.9994 34.6666C42.0176 34.9816 41.9003 35.2886 41.6775 35.5119C41.4548 35.7347 41.1472 35.8514 40.8327 35.8332H28.0086C27.9892 35.6293 27.9938 35.3143 27.9961 35.0659L27.9995 33.4999C28.0103 26.8127 23.9316 20.7977 17.7143 18.3334H26.8328C27.464 18.3328 28.0678 18.0759 28.5059 17.6207C29.1604 18.0838 29.942 18.3328 30.7435 18.3334H49.712L50.2019 19.3542C50.0993 19.414 49.9991 19.4784 49.8977 19.5399C49.6641 19.6789 49.4311 19.8093 49.2084 19.9586L49.1862 19.9762C48.8358 20.2098 48.4952 20.4684 48.1619 20.7333C48.056 20.6952 47.9449 20.6729 47.8327 20.6667H32.6661C31.7233 20.6684 30.8204 21.0495 30.1619 21.724C29.5034 22.399 29.1445 23.3104 29.1661 24.2532V25.2473C29.1445 26.1901 29.5034 27.1015 30.1619 27.7766C30.8204 28.451 31.7233 28.8321 32.6661 28.8333H42.6875C42.4631 29.5978 42.295 30.3776 42.1862 31.1666H34.9994C34.3551 31.1666 33.8328 31.689 33.8328 32.3332C33.8328 32.9781 34.3551 33.4999 34.9994 33.4999H41.9994V34.6666ZM43.9453 25.7805C43.9254 25.8164 43.9009 25.8505 43.881 25.8876C43.8707 25.9075 43.8718 25.9297 43.8627 25.9508C43.7693 26.1303 43.685 26.3171 43.5978 26.5H32.6661C32.3431 26.4954 32.0355 26.3593 31.8156 26.1228C31.5952 25.8864 31.4812 25.5697 31.4995 25.2473V24.2532C31.4812 23.9308 31.5952 23.6141 31.8156 23.3777C32.0355 23.1413 32.3431 23.0045 32.6661 23H45.8297C45.2373 23.7132 44.7064 24.4748 44.2427 25.2775C44.1447 25.4501 44.0376 25.6079 43.9453 25.7805ZM58.3326 42.8332C54.1986 42.8394 50.5545 40.1239 49.3781 36.1608C48.2018 32.1977 49.7746 27.9338 53.2427 25.6836L55.3026 29.9771C53.5982 31.4919 53.282 34.0359 54.5632 35.9221C55.8449 37.8082 58.3263 38.4519 60.3628 37.4254C62.3988 36.3995 63.3587 34.0223 62.605 31.8701C61.8513 29.718 59.6183 28.4584 57.3864 28.9267L55.3402 24.664C58.8458 23.4717 62.7252 24.4646 65.2266 27.1955C67.7285 29.9259 68.379 33.877 66.8854 37.2653C65.3912 40.6537 62.0359 42.8383 58.3326 42.8332ZM58.3326 31.1666C59.6211 31.1666 60.6659 32.2113 60.6659 33.4999C60.6659 34.789 59.6211 35.8332 58.3326 35.8332C57.044 35.8332 55.9993 34.789 55.9993 33.4999C56.001 32.9935 56.1702 32.5013 56.48 32.1003C56.6783 32.2489 56.9181 32.3304 57.1659 32.3332C57.4741 32.3338 57.7703 32.2102 57.9874 31.9915C58.2044 31.7721 58.3246 31.4753 58.3223 31.1666H58.3326Z" fill="white"/>
</svg>
