<svg width="70" height="70" viewBox="0 0 70 70" fill="none" xmlns="http://www.w3.org/2000/svg">
<path d="M69.981 49.3236V17.1373L44.161 6.69956C42.9237 2.81897 39.2854 0 34.9999 0C30.6936 0 27.0395 2.84609 25.8195 6.75598L14.1674 11.4439L14.934 13.3494L25.3979 9.13965C25.3903 9.29685 25.3859 9.455 25.3859 9.61411C25.3859 10.531 25.5176 11.4172 25.7585 12.2578L2.0725 21.7869V18.5236L15.4094 13.1582L14.6429 11.2526L0.0185547 17.1361V70.0001H69.9812V37.2864H67.9272V67.9462H2.0725V24.0008L26.5313 14.1606C28.1561 17.1746 31.3423 19.228 34.9999 19.228C38.6734 19.228 41.8709 17.1562 43.489 14.1205L67.9272 23.9994V49.3235L69.981 49.3236ZM34.9999 17.1741C30.8312 17.1741 27.4398 13.7827 27.4398 9.61411C27.4398 5.44556 30.8312 2.05395 34.9999 2.05395C39.1686 2.05395 42.5599 5.44542 42.5599 9.61398C42.5599 13.7825 39.1686 17.1741 34.9999 17.1741ZM44.2536 12.2143C44.4865 11.3865 44.6138 10.5151 44.6138 9.61398C44.6138 9.43884 44.6085 9.26494 44.5992 9.09214L67.9271 18.5224V21.7842L44.2536 12.2143Z" fill="white"/>
<path fill-rule="evenodd" clip-rule="evenodd" d="M31.8607 46.9297V38.6842C35.078 37.8759 37.4053 34.9636 37.4053 31.5654C37.4053 27.5169 34.1116 24.2232 30.0631 24.2232H29.7432C28.0064 22.0855 25.3585 20.7163 22.3959 20.7163H19.3998C16.4372 20.7163 13.7893 22.0855 12.0525 24.2232H11.8191C7.77066 24.2232 4.47695 27.5169 4.47695 31.5654C4.47695 34.917 6.76765 37.8205 9.93497 38.6614V46.9297C9.93497 49.2916 10.6858 51.4814 11.9612 53.2731L11.9577 53.2756C12.786 54.4407 13.8233 55.4165 14.9985 56.1665C16.7028 57.2588 18.7277 57.8926 20.8978 57.8926C20.9487 57.8926 20.9994 57.8922 21.0502 57.8915C23.1551 57.8628 25.1186 57.2378 26.7791 56.1782C27.9619 55.4267 29.0056 54.4467 29.8383 53.2756L29.8348 53.2731C30.2934 52.6289 30.6842 51.9332 30.9966 51.1965L30.9989 51.1974C31.4742 50.0737 31.7547 48.8922 31.8359 47.6757C31.8526 47.4292 31.8607 47.1804 31.8607 46.9297ZM25.8211 54.352C28.0045 52.899 29.5134 50.509 29.7688 47.7609C29.794 47.4862 29.8067 47.2091 29.8066 46.93V46.5172C28.8714 47.6956 27.6526 48.6605 26.221 49.2979L25.1598 49.7703L24.8209 48.6594C24.3311 47.0534 22.8726 45.9744 21.1921 45.9744C19.4552 45.9744 17.9433 47.1483 17.5155 48.8291L17.2351 49.931L16.1673 49.5402C14.486 48.9249 13.0549 47.8592 11.9888 46.5128V46.9299C11.9888 50.0169 13.5671 52.7423 15.9591 54.3414C17.4049 55.3039 19.1206 55.8388 20.8983 55.8388C20.9343 55.8388 20.9702 55.8386 21.0061 55.8381C22.7386 55.8169 24.408 55.2883 25.8211 54.352ZM31.8608 36.5405C33.9138 35.8002 35.3515 33.8328 35.3515 31.5654C35.3515 28.9895 33.4998 26.839 31.0579 26.3723C31.5728 27.5386 31.8608 28.8264 31.8608 30.181V36.5405ZM22.3959 22.7703H19.3998C15.3136 22.7703 11.9891 26.0946 11.9889 30.1812V34.9363C12.7749 33.8413 14.0578 33.126 15.5055 33.126C17.5377 33.126 19.2462 34.5344 19.7085 36.4261H22.21C22.6725 34.5343 24.3808 33.126 26.413 33.126C27.7876 33.126 29.0135 33.7711 29.8068 34.7735V30.1812C29.8068 26.0948 26.4822 22.7703 22.3959 22.7703ZM26.413 39.726C27.6664 39.726 28.6861 38.7063 28.6861 37.4528C28.6861 36.1994 27.6664 35.1796 26.413 35.1796C25.1595 35.1796 24.1398 36.1994 24.1398 37.4528C24.1398 38.7063 25.1595 39.726 26.413 39.726ZM15.5055 39.726C16.759 39.726 17.7787 38.7063 17.7787 37.4528C17.7787 36.1994 16.759 35.1796 15.5055 35.1796C14.2521 35.1796 13.2324 36.1994 13.2324 37.4528C13.2324 38.7063 14.2521 39.726 15.5055 39.726ZM10.7299 26.3905C8.33481 26.8942 6.53104 29.0229 6.53104 31.5654C6.53104 33.7901 7.93101 35.7413 9.93511 36.5079V30.181C9.93511 28.8335 10.2201 27.552 10.7299 26.3905ZM21.1924 43.9203C23.3655 43.9203 25.2974 45.0912 26.3094 46.9303C28.4628 45.5843 29.8068 43.2166 29.8068 40.6473V40.1324C29.0137 41.1349 27.7876 41.7799 26.413 41.7799C24.3808 41.7799 22.6723 40.3715 22.21 38.4798H19.7086C19.2462 40.3716 17.5379 41.7799 15.5057 41.7799C14.0579 41.7799 12.775 41.0646 11.9891 39.9696V40.6473C11.9891 43.4004 13.5412 45.9184 15.9392 47.1943C16.9042 45.2203 18.9237 43.9203 21.1924 43.9203Z" fill="white"/>
<path d="M50.0064 65.5439H53.0026C58.2215 65.5439 62.4674 61.298 62.4674 56.0791V53.3536C64.6063 50.7908 65.7823 47.5615 65.7823 44.2114C65.7823 38.6376 62.5716 33.8005 57.9031 31.4501C57.9155 31.2871 57.9238 31.1239 57.9238 30.9605C57.9238 27.4209 55.0442 24.5413 51.5045 24.5413C47.9649 24.5413 45.0853 27.4209 45.0853 30.9605C45.0853 31.1239 45.0935 31.2873 45.106 31.4501C40.4373 33.8005 37.2267 38.6376 37.2267 44.2114C37.2267 47.5615 38.403 50.7908 40.5417 53.3536V56.0791C40.5415 61.2982 44.7875 65.5439 50.0064 65.5439ZM60.4133 49.7562C59.6201 48.7537 58.3942 48.1087 57.0195 48.1087C54.9874 48.1087 53.2789 49.517 52.8166 51.4088H50.315C49.8528 49.5171 48.1443 48.1087 46.1121 48.1087C44.6644 48.1087 43.3813 48.8241 42.5955 49.9192V45.6131C42.5955 43.0438 43.9396 40.676 46.0929 39.33C47.105 41.1692 49.0369 42.34 51.21 42.34C53.4787 42.34 55.4982 41.0399 56.4632 39.066C58.8612 40.3419 60.4133 42.8597 60.4133 45.613V49.7562ZM59.2926 52.4356C59.2926 53.6891 58.2729 54.7088 57.0194 54.7088C55.7659 54.7088 54.7462 53.6891 54.7462 52.4356C54.7462 51.1822 55.7659 50.1625 57.0194 50.1625C58.2729 50.1625 59.2926 51.1822 59.2926 52.4356ZM48.3853 52.4356C48.3853 53.6891 47.3656 54.7088 46.1121 54.7088C44.8587 54.7088 43.8389 53.6891 43.8389 52.4356C43.8389 51.1822 44.8587 50.1625 46.1121 50.1625C47.3656 50.1625 48.3853 51.1822 48.3853 52.4356ZM53.0024 63.49H50.0063C45.9199 63.49 42.5953 60.1655 42.5953 56.0791V54.9521C43.3812 56.0472 44.6642 56.7626 46.112 56.7626C48.1441 56.7626 49.8525 55.3543 50.3149 53.4625H52.8165C53.2789 55.3542 54.9874 56.7626 57.0194 56.7626C58.394 56.7626 59.6201 56.1176 60.4132 55.1151V56.0792C60.4133 60.1656 57.0888 63.49 53.0024 63.49ZM51.5044 26.5954C53.794 26.5954 55.6763 28.3675 55.8545 30.6121C54.4824 30.1721 53.0208 29.9336 51.5044 29.9336C49.988 29.9336 48.5265 30.1721 47.1543 30.6121C47.3326 28.3675 49.2148 26.5954 51.5044 26.5954ZM39.2804 44.2115C39.2804 37.4711 44.764 31.9877 51.5043 31.9877C58.2445 31.9877 63.7281 37.4713 63.7281 44.2115C63.7281 46.1032 63.2898 47.9498 62.4671 49.6179V45.613C62.4671 41.6582 59.9624 38.0843 56.2346 36.7201L55.1669 36.3293L54.8864 37.4312C54.4587 39.112 52.9468 40.2859 51.2099 40.2859C49.5293 40.2859 48.0709 39.2069 47.5811 37.6008L47.2422 36.4899L46.181 36.9623C42.755 38.4879 40.5414 41.8833 40.5414 45.613V49.6179C39.7189 47.9498 39.2804 46.1032 39.2804 44.2115Z" fill="white"/>
<path d="M36.0267 4.94982H33.9728V8.58694H30.3355V10.6409H33.9728V14.2782H36.0267V10.6409H39.6639V8.58694H36.0267V4.94982Z" fill="white"/>
</svg>
