<svg width="70" height="31" viewBox="0 0 70 31" fill="none" xmlns="http://www.w3.org/2000/svg">
<path d="M69.2673 16.9161L63.8984 14.7682L61.7505 9.39929C61.572 8.95714 61.1439 8.66662 60.6668 8.66662H52.5C51.8548 8.66662 51.3334 9.18929 51.3334 9.83324V27.3332C51.3334 27.9784 51.8548 28.4998 52.5 28.4998H56V26.1665H53.6666V11H59.8768L61.9161 16.0995C62.035 16.397 62.2696 16.6314 62.5671 16.7505L67.6666 18.7898V26.1666H63V28.5H68.8334C69.4786 28.5 70 27.9785 70 27.3334V18C70 17.5228 69.7095 17.0946 69.2673 16.9161Z" fill="white"/>
<path d="M59.5 21.5C56.9263 21.5 54.8334 23.593 54.8334 26.1666C54.8334 28.7402 56.9264 30.8332 59.5 30.8332C62.0737 30.8332 64.1666 28.7402 64.1666 26.1666C64.1666 23.593 62.0737 21.5 59.5 21.5ZM59.5 28.5C58.2132 28.5 57.1666 27.4535 57.1666 26.1666C57.1666 24.8797 58.2131 23.8332 59.5 23.8332C60.7869 23.8332 61.8334 24.8797 61.8334 26.1666C61.8334 27.4535 60.7868 28.5 59.5 28.5Z" fill="white"/>
<path d="M43.1666 21.5C40.5929 21.5 38.5 23.593 38.5 26.1666C38.5 28.7402 40.593 30.8332 43.1666 30.8332C45.7404 30.8332 47.8332 28.7402 47.8332 26.1666C47.8332 23.593 45.7404 21.5 43.1666 21.5ZM43.1666 28.5C41.8798 28.5 40.8332 27.4535 40.8332 26.1666C40.8332 24.8797 41.8797 23.8332 43.1666 23.8332C44.4534 23.8332 45.5 24.8797 45.5 26.1666C45.5 27.4535 44.4536 28.5 43.1666 28.5Z" fill="white"/>
<path d="M7 21.5C4.42627 21.5 2.33338 23.593 2.33338 26.1666C2.33338 28.7402 4.42641 30.8332 7 30.8332C9.57359 30.8332 11.6666 28.7402 11.6666 26.1666C11.6666 23.593 9.57373 21.5 7 21.5ZM7 28.5C5.7132 28.5 4.66662 27.4535 4.66662 26.1666C4.66662 24.8797 5.71307 23.8332 7 23.8332C8.2868 23.8332 9.33338 24.8797 9.33338 26.1666C9.33338 27.4535 8.2868 28.5 7 28.5Z" fill="white"/>
<path d="M18.6666 21.5C16.0929 21.5 14 23.593 14 26.1666C14 28.7402 16.093 30.8332 18.6666 30.8332C21.2402 30.8332 23.3332 28.7402 23.3332 26.1666C23.3332 23.593 21.2404 21.5 18.6666 21.5ZM18.6666 28.5C17.3798 28.5 16.3332 27.4535 16.3332 26.1666C16.3332 24.8797 17.3797 23.8332 18.6666 23.8332C19.9534 23.8332 21 24.8797 21 26.1666C21 27.4535 19.9536 28.5 18.6666 28.5Z" fill="white"/>
<path d="M47.8334 0.5H1.16662C0.522676 0.5 0 1.02268 0 1.66662V22.6666C0 23.3118 0.522676 23.8332 1.16662 23.8332H47.8332C48.4784 23.8332 48.9999 23.3118 48.9999 22.6666V1.66662C49 1.02268 48.4786 0.5 47.8334 0.5ZM2.33338 21.5V2.83338H46.6668V21.5H2.33338Z" fill="white"/>
<path d="M7 5.16662H4.66662V19.1666H7V5.16662Z" fill="white"/>
<path d="M11.6668 5.16662H9.33338V19.1666H11.6668V5.16662Z" fill="white"/>
<path d="M16.3334 5.16662H14V19.1666H16.3334V5.16662Z" fill="white"/>
<path d="M21 5.16662H18.6666V19.1666H21V5.16662Z" fill="white"/>
<path d="M25.6668 5.16662H23.3334V19.1666H25.6668V5.16662Z" fill="white"/>
<path d="M30.3334 5.16662H28V19.1666H30.3334V5.16662Z" fill="white"/>
<path d="M35 5.16662H32.6666V19.1666H35V5.16662Z" fill="white"/>
<path d="M39.6668 5.16662H37.3334V19.1666H39.6668V5.16662Z" fill="white"/>
<path d="M44.3334 5.16662H42V19.1666H44.3334V5.16662Z" fill="white"/>
<path d="M52.5 26.1665H46.6666V28.4998L52.5 28.4998V26.1665Z" fill="white"/>
<path d="M52.4998 21.4999H47.8331L47.8332 23.8332L52.4998 23.8332V21.4999Z" fill="white"/>
<path d="M15.1669 26.1665H10.5003V28.4998H15.1669V26.1665Z" fill="white"/>
</svg>
