<svg width="70" height="58" viewBox="0 0 70 58" fill="none" xmlns="http://www.w3.org/2000/svg">
<path d="M69.7421 50.9878L66.9578 45.4214C66.5372 44.578 66.0368 43.7684 65.47 43.0138C63.9103 40.9346 62.9893 38.4663 62.8038 35.8731L62.1572 26.8174C62.0279 25.0025 61.2475 23.2954 59.9621 22.0101C59.7462 21.7942 59.5045 21.6143 59.2661 21.4276C60.3096 19.3877 60.864 17.1376 60.864 14.8256V10.4456C60.864 8.89601 59.6034 7.6343 58.0527 7.6343C56.502 7.6343 55.2414 8.89601 55.2414 10.4456V11.0079C55.2414 14.0519 54.3294 17.0679 52.6697 19.6149L36.236 18.3003C32.3519 17.99 28.7996 15.8309 26.7327 12.5259L24.8795 9.56172V6.50979C24.8795 3.4095 22.3572 0.887207 19.2569 0.887207H18.1324C18.0278 0.887207 17.9232 0.901826 17.8243 0.931063L9.95266 3.18009C9.59619 3.28243 9.31169 3.55343 9.19474 3.90541L8.32661 6.50979H5.05427C2.34419 6.50979 0.140137 8.71384 0.140137 11.4228C0.140137 13.6819 1.66948 15.642 3.86229 16.1896L13.7457 18.6602L15.4909 31.7518C15.7878 33.9671 16.982 36.0081 18.77 37.3496C19.8934 38.193 20.7008 39.4075 21.0415 40.7693L23.439 50.3659H22.6305C20.7705 50.3659 19.2569 51.8795 19.2569 53.7395V55.9885C19.2569 56.6092 19.7596 57.113 20.3814 57.113H29.3776C29.7082 57.113 30.0219 56.9679 30.2356 56.7149C30.4492 56.4619 30.5414 56.1291 30.4875 55.8029L29.3776 49.1481V40.1576C30.6741 39.9788 31.9066 39.4997 32.9861 38.7272L37.1963 35.7191C38.2028 35.0016 39.3857 34.6227 40.6227 34.6227H41.7326C42.3668 34.6227 42.9943 34.7239 43.5959 34.9252L49.2095 36.7964L51.6059 41.9883C52.6876 44.3306 54.6027 46.149 56.9979 47.1071C58.3271 47.6378 59.482 48.524 60.3411 49.6687L60.9787 50.52C59.6113 50.9507 58.615 52.2304 58.615 53.7395V55.9885C58.615 56.6092 59.1176 57.113 59.7395 57.113H68.7356C69.3575 57.113 69.8601 56.6092 69.8601 55.9885V51.4904C69.8601 51.3161 69.8197 51.143 69.7421 50.9878ZM57.4905 11.0079V10.4456C57.4905 10.1352 57.7435 9.88334 58.0527 9.88334C58.362 9.88334 58.615 10.1352 58.615 10.4456V14.8256C58.615 16.7485 58.1618 18.6197 57.3072 20.3211C56.6381 20.0647 55.942 19.878 55.2178 19.8196L55.1683 19.8151C56.6696 17.1353 57.4905 14.0857 57.4905 11.0079ZM67.6111 54.864H60.864V53.7395C60.864 53.1199 61.3678 52.6149 61.9885 52.6149H63.113C63.5392 52.6149 63.9283 52.3743 64.1195 51.9931C64.3095 51.6119 64.269 51.1564 64.0127 50.8157L62.1403 48.3204C61.0349 46.8451 59.545 45.7037 57.8334 45.0188C55.9757 44.2755 54.488 42.8643 53.6491 41.0459L48.3909 29.6535L46.3488 30.5958L47.9175 33.9941L44.3089 32.7908C43.4767 32.5142 42.6109 32.3737 41.7326 32.3737H40.6227C38.9146 32.3737 37.2773 32.8977 35.8896 33.8906L31.6794 36.8987C30.9845 37.3946 30.2018 37.7174 29.3776 37.8759V32.3737H27.1285V49.2414C27.1285 49.3032 27.1341 49.3651 27.1443 49.4269L28.0495 54.864H21.5059V53.7395C21.5059 53.1199 22.0097 52.6149 22.6305 52.6149H24.8795C25.2258 52.6149 25.5531 52.4553 25.7656 52.182C25.9781 51.9087 26.0546 51.5534 25.9703 51.2172L23.222 40.2228C22.7575 38.3617 21.6555 36.7019 20.1194 35.5504C18.8116 34.5687 17.9367 33.0754 17.7197 31.4538L16.043 18.8795H19.2569V16.6304H14.8972L4.40655 14.0081C3.21906 13.7112 2.38917 12.6474 2.38917 11.4228C2.38917 9.95418 3.58341 8.75882 5.05315 8.75882H11.3853V6.50979H10.696L11.1402 5.17836L18.2898 3.13624H19.2569C21.1169 3.13624 22.6305 4.64984 22.6305 6.50979V11.5701C22.6305 12.5001 21.8737 13.2569 20.9437 13.2569C20.0137 13.2569 19.2569 12.5001 19.2569 11.5701V6.50979H17.0079V11.5701C17.0079 13.7404 18.7734 15.5059 20.9437 15.5059C22.5259 15.5059 23.8843 14.5613 24.5095 13.2119L24.8255 13.7179C27.2668 17.6234 31.4647 20.1749 36.0549 20.5415L55.0379 22.0607C56.2951 22.1619 57.4792 22.7084 58.371 23.6002C59.2739 24.5032 59.8216 25.703 59.9138 26.9782L60.5604 36.034C60.7752 39.0578 61.8502 41.9388 63.6708 44.3644C64.1566 45.011 64.585 45.7048 64.946 46.4279L67.6111 51.7581V54.864Z" fill="white"/>
<path d="M14.0578 6.63258C13.5292 6.63258 13.0991 7.0627 13.0991 7.59124C13.0991 8.11978 13.5292 8.5499 14.0578 8.5499C14.5863 8.5499 15.0164 8.11978 15.0164 7.59124C15.0164 7.0627 14.5863 6.63258 14.0578 6.63258Z" fill="white"/>
</svg>
