<svg width="62" height="44" viewBox="0 0 62 44" fill="none" xmlns="http://www.w3.org/2000/svg">
<path d="M49.2666 18.0624C48.6738 18.0624 48.0952 18.1182 47.5243 18.198L45.2143 9.46879L46.1057 9.4841L47.4313 15.6671C47.5396 16.1713 47.9847 16.5311 48.501 16.5311H55.0624C55.6213 16.5311 56.0894 16.1089 56.1496 15.5533L57.2433 5.34426C57.2761 5.03582 57.1766 4.72848 56.9699 4.4977C56.7621 4.26582 56.4668 4.13457 56.1561 4.13457H46.3124C45.9821 4.13457 45.6693 4.28441 45.4625 4.54035C45.2547 4.79738 45.1738 5.13426 45.2438 5.45801L45.6354 7.28785L44.6335 7.26926L43.1318 1.59598C43.0049 1.11691 42.5707 0.782227 42.0741 0.782227H34.828C34.2232 0.782227 33.7343 1.27113 33.7343 1.87598C33.7343 2.48082 34.2232 2.96973 34.828 2.96973H41.2319L43.0596 9.87676L22.0454 9.85379L19.7386 4.91113H23.7538C24.3586 4.91113 24.8475 4.42223 24.8475 3.81738C24.8475 3.21254 24.3586 2.72363 23.7538 2.72363H14.1835C13.5786 2.72363 13.0897 3.21254 13.0897 3.81738C13.0897 4.42223 13.5786 4.91113 14.1835 4.91113H17.3236L20.0493 10.7463L16.5897 18.6727C15.3735 18.2811 14.0796 18.0624 12.7343 18.0624C5.79879 18.0624 0.157227 23.705 0.157227 30.6405C0.157227 37.5749 5.79879 43.2164 12.7343 43.2164C19.1797 43.2164 24.4997 38.3427 25.2216 32.0886H30.4858C30.5646 32.1072 30.6455 32.1225 30.7286 32.1225C30.78 32.1225 30.8314 32.0963 30.8829 32.0886H30.9999C31.3685 32.0886 31.7119 31.9027 31.9143 31.5943L43.9488 13.2357L45.3893 18.6814C40.3471 20.3199 36.6885 25.0591 36.6885 30.6416C36.6885 37.576 42.3311 43.2175 49.2666 43.2175C56.201 43.2175 61.8425 37.576 61.8425 30.6416C61.8425 23.7061 56.201 18.0624 49.2666 18.0624ZM54.4018 11.3358H52.7874V10.1546H54.5286L54.4018 11.3358ZM48.7405 11.3358L48.4879 10.1546H50.601V11.3358H48.7405ZM49.2086 13.5233H50.5988V14.3436H49.3847L49.2086 13.5233ZM54.0802 14.3436H52.7874V13.5233H54.1677L54.0802 14.3436ZM54.7627 7.96707H52.7874V6.32207H54.9388L54.7627 7.96707ZM50.5999 6.32207V7.96707H48.0186L47.6664 6.32207H50.5999ZM17.7283 21.5339C20.7361 23.191 22.8307 26.2961 23.0855 29.9011H14.0763L17.7283 21.5339ZM12.7343 41.0289C7.00629 41.0289 2.34473 36.3685 2.34473 30.6405C2.34473 24.9114 7.00629 20.2499 12.7343 20.2499C13.7689 20.2499 14.7664 20.4074 15.7104 20.6896L11.4032 30.5563C11.2555 30.8954 11.2894 31.2847 11.4907 31.5932C11.6919 31.9016 12.0375 32.0875 12.4061 32.0875H23.01C22.3024 37.133 17.97 41.0289 12.7343 41.0289ZM25.2741 29.9022C25.0105 25.4014 22.3822 21.5307 18.6055 19.5269L21.283 13.3921L28.9929 29.9033H25.2741V29.9022ZM30.9911 29.013L23.068 12.0424L42.1014 12.0643L30.9911 29.013ZM49.2666 41.0289C43.5375 41.0289 38.876 36.3685 38.876 30.6405C38.876 26.0708 41.8444 22.1902 45.9514 20.8022L48.8094 31.6063C48.9396 32.0963 49.3814 32.42 49.866 32.42C49.9589 32.42 50.053 32.408 50.1471 32.3839C50.7311 32.2286 51.08 31.6314 50.9247 31.0463L48.0864 20.321C48.4736 20.2772 48.8674 20.2499 49.2666 20.2499C54.9946 20.2499 59.655 24.9114 59.655 30.6405C59.655 36.3696 54.9946 41.0289 49.2666 41.0289Z" fill="white"/>
</svg>
