<svg width="70" height="53" viewBox="0 0 70 53" fill="none" xmlns="http://www.w3.org/2000/svg">
<path d="M10.2744 30.3392L0 52.8606H9.26907L17.6345 30.3392H10.2744ZM8.30055 51.4677H2.16641L11.1701 31.7321H15.6312L8.30055 51.4677Z" fill="white"/>
<path d="M15.5752 52.8606H24.7593L26.4049 42.8589L22.5212 40.2997L21.9193 37.6744L27.6739 35.1464L28.4648 30.3392H21.1896L15.5752 52.8606ZM26.824 31.7321L26.2024 35.5098L21.9193 37.6744V40.2997L25.0889 42.2773L23.5767 51.4677H17.3579L22.2778 31.7321H26.824Z" fill="white"/>
<path d="M35.3333 32.9569L31.7799 37.3486L31.1226 52.8606H40.277L39.7863 41.2798L38.8239 39.8485L39.6559 38.2035L39.5776 36.3556L37.0972 32.9569H35.3333ZM32.5755 51.4677L33.2519 35.5098L35.6614 33.6132H36.2767L38.1322 35.1464L38.8239 51.4677H32.5755Z" fill="white"/>
<path d="M42.9358 30.3392L43.566 34.1694L45.4436 37.0014L44.4659 39.6391L46.6412 52.8606H55.8253L50.2109 30.3392H42.9358ZM47.8238 51.4677L44.5766 31.7321H49.1227L54.0426 51.4677H47.8238Z" fill="white"/>
<path d="M59.7256 30.3392H52.3656L60.7312 52.8606H70.0001L59.7256 30.3392ZM54.3689 31.7321H58.83L67.8337 51.4677H61.6997L54.3689 31.7321Z" fill="white"/>
<path d="M48.6111 18.811L37.8683 11.4035C38.9818 10.7766 39.8564 9.79832 40.3552 8.62171C40.854 7.4451 40.949 6.1364 40.6253 4.9001C40.3016 3.66379 39.5775 2.56953 38.5661 1.78831C37.5547 1.00708 36.313 0.582894 35.0351 0.582033C33.7571 0.581171 32.5148 1.00368 31.5024 1.78355C30.49 2.56341 29.7644 3.65669 29.439 4.89256C29.1137 6.12843 29.2069 7.43726 29.7041 8.61454C30.2014 9.79182 31.0746 10.7712 32.1873 11.3997L21.4511 18.8115C21.0473 19.0847 20.7016 19.4352 20.434 19.8427C20.1665 20.2502 19.9823 20.7067 19.8921 21.1858C19.8019 21.6649 19.8074 22.1572 19.9085 22.6341C20.0096 23.111 20.2041 23.5632 20.4809 23.9645C20.7577 24.3659 21.1112 24.7084 21.5211 24.9723C21.931 25.2363 22.3891 25.4165 22.8689 25.5024C23.3488 25.5884 23.841 25.5784 24.317 25.4731C24.793 25.3678 25.2434 25.1693 25.6423 24.8889L31.3397 20.9602V28.0904L25.9803 35.5585L25.7566 35.4814C24.8307 35.1631 23.8164 35.2256 22.9366 35.6552C22.0569 36.0849 21.3838 36.8464 21.0655 37.7722C20.7472 38.6981 20.8098 39.7125 21.2394 40.5922C21.669 41.472 22.4305 42.145 23.3564 42.4633L26.1777 43.4329C26.9283 43.6911 27.7421 43.7004 28.4984 43.4595C29.2547 43.2185 29.9132 42.7401 30.3761 42.0953L36.2058 33.9753L38.6322 37.3473L38.4879 37.5354C37.9178 38.3133 37.6747 39.2833 37.8106 40.2381C37.9465 41.1928 38.4505 42.0565 39.215 42.6444C39.9794 43.2323 40.9436 43.4978 41.9012 43.384C42.8589 43.2703 43.734 42.7863 44.3394 42.0357L46.1572 39.6704C46.6414 39.0414 46.9097 38.2729 46.9223 37.4792C46.9349 36.6855 46.6912 35.9089 46.2272 35.2648L38.7225 24.8359V20.9607L44.4198 24.8895C45.2262 25.432 46.2139 25.6346 47.1687 25.4535C48.1235 25.2724 48.9684 24.7221 49.5201 23.922C50.0718 23.1219 50.2858 22.1366 50.1156 21.1797C49.9454 20.2229 49.4048 19.3718 48.6111 18.811ZM35.0311 2.50206C35.7962 2.50206 36.5442 2.72897 37.1804 3.15408C37.8166 3.57919 38.3124 4.18341 38.6052 4.89034C38.898 5.59726 38.9746 6.37514 38.8253 7.12558C38.676 7.87603 38.3075 8.56535 37.7664 9.10636C37.2253 9.64737 36.5359 10.0158 35.7855 10.165C35.035 10.3142 34.2571 10.2375 33.5502 9.94462C32.8434 9.65173 32.2392 9.1558 31.8142 8.51954C31.3892 7.88328 31.1624 7.13527 31.1625 6.37011C31.1638 5.34455 31.5718 4.36137 32.297 3.63624C33.0223 2.9111 34.0055 2.50322 35.0311 2.50206ZM24.5562 23.3134C24.3642 23.4499 24.1469 23.5469 23.9171 23.5987C23.6872 23.6505 23.4494 23.6562 23.2174 23.6153C22.9853 23.5743 22.7637 23.4877 22.5655 23.3604C22.3672 23.2331 22.1962 23.0677 22.0625 22.8737C21.9287 22.6798 21.8348 22.4612 21.7863 22.2306C21.7378 22 21.7355 21.7621 21.7798 21.5307C21.824 21.2993 21.9137 21.079 22.0439 20.8825C22.174 20.6861 22.3418 20.5175 22.5377 20.3865L31.3397 14.3102V18.6354L24.5562 23.3134ZM44.6725 36.3837C44.8961 36.6939 45.0136 37.0679 45.0075 37.4503C45.0014 37.8326 44.872 38.2027 44.6386 38.5056L42.8213 40.8697C42.534 41.2435 42.1099 41.4878 41.6425 41.5489C41.175 41.6101 40.7024 41.483 40.3286 41.1957C39.9549 40.9083 39.7106 40.4843 39.6494 40.0168C39.5883 39.5494 39.7154 39.0768 40.0027 38.703L40.5808 37.9516C40.7065 37.7886 40.7762 37.5894 40.7797 37.3836C40.7831 37.1777 40.7201 36.9763 40.5999 36.8092L37.3826 32.3346L38.0312 31.4312C38.4825 30.8041 38.7244 30.0507 38.7225 29.2782V28.1133L44.6725 36.3837ZM47.9789 22.8606C47.7111 23.2487 47.3002 23.5146 46.8364 23.5997C46.3726 23.6848 45.894 23.5822 45.5059 23.3145L38.3085 18.35C38.1648 18.2512 37.9968 18.1935 37.8227 18.1831C37.6486 18.1728 37.475 18.2102 37.3207 18.2913C37.1663 18.3724 37.037 18.4942 36.9467 18.6434C36.8564 18.7926 36.8086 18.9636 36.8084 19.138V29.2782C36.8094 29.651 36.6927 30.0147 36.4748 30.3172L28.8186 40.9813C28.5927 41.2888 28.2752 41.5168 27.9116 41.6325C27.5481 41.7482 27.1572 41.7458 26.7951 41.6255L23.9749 40.6559C23.7539 40.5799 23.55 40.4611 23.3749 40.3063C23.1998 40.1515 23.0569 39.9637 22.9544 39.7536C22.7473 39.3294 22.7172 38.8404 22.8707 38.394C23.0243 37.9477 23.3488 37.5806 23.773 37.3735C24.1972 37.1664 24.6863 37.1364 25.1326 37.2899L26.0289 37.5983C26.2236 37.6651 26.4346 37.6675 26.6307 37.605C26.8268 37.5426 26.9976 37.4187 27.1178 37.2516L33.0743 28.9566C33.1909 28.7937 33.2536 28.5985 33.2537 28.3982V12.9889L34.5028 12.1265C35.0354 12.1261 35.5616 12.2438 36.0433 12.471L36.0679 12.4864L47.525 20.3871C47.9123 20.6553 48.1776 21.0661 48.2627 21.5295C48.3478 21.9929 48.2457 22.4723 47.9789 22.8606Z" fill="white"/>
</svg>
