<svg width="70" height="50" viewBox="0 0 70 50" fill="none" xmlns="http://www.w3.org/2000/svg">
<path fill-rule="evenodd" clip-rule="evenodd" d="M11.1174 1.57046H0.700195V29.4337C0.700195 32.3519 1.73499 35.4542 4.01043 37.3409C6.85592 39.7006 10.4178 39.6043 12.772 38.7872C13.197 38.6396 13.5826 38.4687 13.9176 38.2844C14.1036 38.182 14.274 38.0756 14.4269 37.9668C14.5421 37.8848 14.6473 37.8015 14.7417 37.7176C14.4749 37.5293 14.1965 37.2992 13.9176 37.0259C13.6903 36.8033 13.4628 36.5521 13.2412 36.2716C12.1023 34.8301 11.1174 32.6142 11.1174 29.5279V1.57046ZM11.2551 37.067C10.0061 35.2864 9.04855 32.7815 9.04855 29.5279V3.63935H2.76909V29.4337C2.76909 31.9422 3.66814 34.3695 5.33094 35.7482C6.77688 36.9473 8.48659 37.3224 10.0658 37.229C10.4929 37.2037 10.8916 37.1456 11.2551 37.067ZM16.158 36.6806C16.3478 36.8122 16.548 36.9378 16.7588 37.0566C17.1287 37.2649 17.5316 37.4525 17.9702 37.6157C18.259 37.7232 18.5632 37.8202 18.8836 37.9057C19.9734 38.1965 20.9623 38.2905 21.8419 38.2604C24.9531 38.1538 26.6965 36.4939 26.6965 36.4939C26.4352 38.2932 24.7406 39.6111 22.0109 39.8935C20.8856 40.0098 19.5894 39.8597 18.4295 39.6076C18.303 39.5802 18.1782 39.5515 18.0554 39.5218C17.431 39.3708 16.8589 39.1941 16.3911 39.0195C16.2456 38.9652 16.1102 38.9111 15.9865 38.858V48.2838C19.3438 49.2739 22.8949 49.5938 26.3701 48.9194C31.4848 47.927 35.0694 44.2726 36.2419 39.186C36.2911 38.9723 36.3361 38.7561 36.3768 38.5375C36.5618 37.543 36.6574 36.498 36.6574 35.4113V11.5486H26.35V26.6758C26.35 27.5346 25.6375 28.2308 24.7583 28.2308C23.8791 28.2308 23.1666 27.5346 23.1666 26.6758V11.5486H12.8589V29.3397C12.8589 29.4022 12.8593 29.4649 12.8601 29.5279C12.8911 31.8383 13.5043 34.546 15.711 36.3444C15.8533 36.4604 16.0022 36.5725 16.158 36.6806ZM14.9277 13.6175V29.3397C14.9277 30.7374 15.1697 32.1568 15.8213 33.3127C16.4341 34.4 17.4805 35.3901 19.417 35.9068C21.4154 36.44 22.9188 36.1447 23.8961 35.7657C24.3953 35.5721 25.3073 35.1286 26.1842 34.6663C27.2083 34.1265 27.4934 33.8256 28.744 33.1716C28.744 33.1716 29.0968 34.0836 28.744 36.7912C28.3912 39.4988 25.4149 41.6213 22.2238 41.9514C20.8698 42.0914 19.3799 41.9264 18.0554 41.6434V46.6855C20.6873 47.2787 23.3733 47.3935 25.976 46.8884C31.1738 45.8799 34.5885 41.5796 34.5885 35.4113V13.6175H28.4189V26.6758C28.4189 28.7223 26.7344 30.2997 24.7583 30.2997C22.7822 30.2997 21.0977 28.7223 21.0977 26.6758V13.6175H14.9277ZM38.7263 11.0993C38.6888 11.2481 38.6538 11.3979 38.6212 11.5486C38.4178 12.4891 38.3108 13.4653 38.3108 14.4666V38.5375C38.3642 38.545 38.4179 38.5521 38.4718 38.5588C40.6003 38.8236 43.1036 38.4548 45.2414 36.6821C47.5165 34.7951 48.5513 31.6932 48.5513 28.7749V27.8881H53.754V17.5807H48.5513V14.4666H48.5638C48.5638 12.5391 50.1264 10.9765 52.0542 10.9765C53.9817 10.9765 55.5505 12.5391 55.5505 14.4666V24.7941C55.5505 25.7305 55.6443 26.6451 55.8229 27.5289C56.958 33.1452 61.5204 37.5207 67.2313 38.3828C67.9062 38.4847 68.597 38.5375 69.3002 38.5375V28.2842C67.3727 28.2842 65.8039 26.7216 65.8039 24.7941V21.856H68.981V11.5486H65.492C64.1526 5.36031 58.6431 0.723145 52.0542 0.723145C45.6255 0.723145 40.228 5.137 38.7263 11.0993ZM66.9121 13.6175H63.823L63.4699 11.9863C62.3323 6.73024 57.6492 2.79204 52.0542 2.79204C45.6064 2.79204 40.3797 8.01905 40.3797 14.4666V36.537C41.5959 36.4252 42.8273 35.9962 43.9206 35.0896M66.9121 13.6175V19.7871H63.735V24.7941C63.735 27.1362 65.1854 29.1356 67.2313 29.9555V36.2859C61.7686 35.3093 57.6194 30.5346 57.6194 24.7941V14.4666C57.6194 11.3916 55.1195 8.90758 52.0542 8.90758C49.7151 8.90758 47.7134 10.3521 46.8926 12.3977C46.0127 14.5907 46.4824 17.3276 46.4824 19.6496H51.6851V25.8192H46.4824V28.7749C46.4824 31.2832 45.5833 33.7105 43.9206 35.0896" fill="white"/>
</svg>
