<svg width="70" height="61" viewBox="0 0 70 61" fill="none" xmlns="http://www.w3.org/2000/svg">
<path d="M68.8333 57.7458H1.16667C0.522375 57.7458 0 58.2682 0 58.9124C0 59.5567 0.522375 60.0791 1.16667 60.0791H68.8333C69.4776 60.0791 70 59.5567 70 58.9124C70 58.2682 69.4776 57.7458 68.8333 57.7458Z" fill="white"/>
<path d="M58.1967 26.3274L46.3294 14.4624C45.8738 14.007 45.1353 14.007 44.6797 14.4624L36.1665 22.9686L28.3709 15.1729C33.517 14.4045 37.3274 9.98812 37.3332 4.78494V4.58544C37.3332 2.65242 35.7662 1.08544 33.8332 1.08544C31.9002 1.08544 30.3332 2.65242 30.3332 4.58544C30.3306 6.62798 28.6751 8.28304 26.6325 8.28493C24.5834 8.28902 22.5509 8.65098 20.6265 9.35477C21.8658 5.69275 19.9017 1.71952 16.2397 0.480373C12.5777 -0.758773 8.60447 1.20516 7.36532 4.86719C6.12617 8.52921 8.09011 12.5024 11.7521 13.7416C12.3302 13.9371 12.9313 14.0564 13.5402 14.0961L13.1832 14.4624C8.21772 19.4285 8.21772 27.4794 13.1832 32.4454L13.6254 32.8876C15.0518 34.3051 17.3572 34.298 18.7747 32.8716C19.4514 32.1907 19.8317 31.2703 19.8332 30.3104C19.836 29.3441 19.452 28.4169 18.7669 27.7356L18.3247 27.2934C16.5255 25.4883 16.2196 22.6765 17.5885 20.5268L33.8145 36.7458H24.4999C23.8556 36.7458 23.3332 37.2681 23.3332 37.9124C23.3332 38.5567 23.8556 39.0791 24.4999 39.0791H36.1432L37.3332 40.2691V50.7458C37.3347 51.5655 37.5524 52.3703 37.9644 53.0791H17.7332C17.0889 53.0791 16.5665 53.6015 16.5665 54.2458C16.5665 54.8901 17.0889 55.4124 17.7332 55.4124H41.9999C44.5772 55.4124 46.6665 53.3231 46.6665 50.7458V36.2791C46.6665 35.9696 46.5435 35.673 46.3247 35.4543L41.3162 30.4458L45.4999 26.2691L51.8804 32.6438C53.6245 34.3879 56.4525 34.3879 58.1967 32.6438C59.9409 30.8996 59.9409 28.0716 58.1967 26.3274ZM9.33319 7.11827C9.33319 4.54096 11.4225 2.4516 13.9999 2.4516C16.5772 2.4516 18.6665 4.54096 18.6665 7.11827C18.6665 9.69558 16.5772 11.7849 13.9999 11.7849C11.4225 11.7849 9.33319 9.69558 9.33319 7.11827ZM56.5278 30.9947C56.1313 31.3874 55.5966 31.6091 55.0385 31.6123C54.4731 31.611 53.9311 31.3867 53.53 30.9881L46.3294 23.7956C45.8738 23.3402 45.1353 23.3402 44.6797 23.7956L38.8499 29.629C38.3944 30.0845 38.3944 30.823 38.8499 31.2786L44.3332 36.7691V50.7458C44.3332 52.0345 43.2886 53.0791 41.9999 53.0791C40.7111 53.0791 39.6665 52.0345 39.6665 50.7458V39.7791C39.6665 39.4696 39.5434 39.173 39.3247 38.9543L18.3247 17.9543C17.8691 17.4988 17.1306 17.4988 16.675 17.9543C13.6462 20.9888 13.6462 25.9028 16.675 28.9373L17.1172 29.3794C17.6282 29.89 17.6285 30.718 17.1179 31.229C16.8725 31.4748 16.5393 31.6127 16.192 31.6124C15.8452 31.6116 15.5129 31.4742 15.2669 31.2298L14.8247 30.7876C10.7701 26.7327 10.7701 20.1588 14.8247 16.1039L15.8502 15.0796C18.7034 12.2103 22.5861 10.6016 26.6325 10.6124C29.9609 10.6092 32.6595 7.91379 32.6665 4.58544C32.6665 3.94114 33.1889 3.41877 33.8332 3.41877C34.4775 3.41877 34.9999 3.94114 34.9999 4.58544V4.78494C34.9948 9.29308 31.3413 12.9465 26.8332 12.9516C26.1889 12.9516 25.6665 13.474 25.6665 14.1183V15.2849C25.6665 15.5944 25.7896 15.891 26.0084 16.1098L35.3417 25.4431C35.7973 25.8985 36.5358 25.8985 36.9914 25.4431L45.4999 16.9358L56.5424 27.9771C57.3716 28.8145 57.3652 30.1655 56.5278 30.9947Z" fill="white"/>
<path d="M28.3709 45.0443H7.83753C7.19324 45.0443 6.67086 45.5667 6.67086 46.211C6.67086 46.8553 7.19324 47.3777 7.83753 47.3777H28.3709C29.0152 47.3777 29.5375 46.8553 29.5375 46.211C29.5375 45.5667 29.0152 45.0443 28.3709 45.0443Z" fill="white"/>
</svg>
