<svg width="70" height="68" viewBox="0 0 70 68" fill="none" xmlns="http://www.w3.org/2000/svg">
<path d="M69.9152 38.0216C69.398 34.438 66.5827 31.6227 62.999 31.1055V28.9845C62.999 23.1326 58.5506 18.368 53.0825 18.368C47.7719 18.368 43.3258 22.9879 43.166 28.6672H43.2337L43.166 28.6788V51.67C43.166 59.0199 37.6711 64.9885 30.9162 64.9885C24.1613 64.9885 18.6664 59.0117 18.6664 51.67V49.6785C20.358 49.6785 22.1663 48.4524 22.1663 45.0119V42.0778C29.6539 40.1633 34.9995 33.7339 34.9995 26.4447V24.0122H32.6662L32.6172 8.82828C32.6003 6.01768 30.5834 3.61788 27.8176 3.11753C27.221 1.28983 25.2556 0.291763 23.4278 0.888504C21.6001 1.4851 20.602 3.45047 21.1987 5.27831C21.7953 7.10602 23.7607 8.10409 25.5885 7.50734C26.5672 7.18783 27.3543 6.45153 27.7382 5.49633C29.2329 5.92158 30.2683 7.28131 30.2804 8.83528L30.3329 24.0122H27.9996V26.4785C27.9065 30.5366 25.1859 34.0631 21.2843 35.1829C19.1968 35.8453 16.9553 35.8453 14.8678 35.1829C10.9707 34.0593 8.25623 30.5334 8.16654 26.4785V24.0122H4.6666V8.84578C4.6733 7.26891 5.73379 5.8911 7.25656 5.48117C7.96661 7.28874 10.0075 8.17831 11.8151 7.46826C13.6227 6.75821 14.5122 4.71716 13.8022 2.90972C13.0921 1.10229 11.0511 0.212576 9.24365 0.922628C8.26425 1.30748 7.50855 2.11057 7.18422 3.1117C4.3882 3.58944 2.34103 6.00922 2.3333 8.84578V24.0122H0V26.4389C0 33.7363 5.34908 40.168 12.8331 42.0778V45.0119C12.8331 48.4524 14.6414 49.6785 16.3331 49.6785V51.67C16.3331 60.3032 22.8745 67.3218 30.9162 67.3218C38.9579 67.3218 45.4993 60.295 45.4993 51.67V28.7348C45.616 24.3074 49.0203 20.7048 53.0825 20.7048C57.2638 20.7048 60.6657 24.4194 60.6657 28.988V31.1055C56.2017 31.7497 53.1053 35.8909 53.7496 40.3549C54.3938 44.819 58.535 47.9154 62.999 47.2711C67.4631 46.6269 70.5595 42.4855 69.9152 38.0216ZM24.4996 5.34583C23.8553 5.34583 23.333 4.82347 23.333 4.17918C23.333 3.5349 23.8553 3.01254 24.4996 3.01254C25.1439 3.01254 25.6663 3.5349 25.6663 4.17918C25.6663 4.82347 25.1439 5.34583 24.4996 5.34583ZM10.4998 3.01254C11.1441 3.01254 11.6665 3.5349 11.6665 4.17918C11.6665 4.82347 11.1441 5.34583 10.4998 5.34583C9.85556 5.34583 9.33319 4.82347 9.33319 4.17918C9.33319 3.5349 9.85556 3.01254 10.4998 3.01254ZM2.3333 26.4389V26.3455H5.83324V26.4785C5.92074 31.5492 9.29426 35.9745 14.1608 37.4019C16.7109 38.2093 19.4482 38.2093 21.9983 37.4019C26.8672 35.9764 30.2438 31.551 30.3329 26.4785V26.3455H32.6662V26.4389C32.6662 32.9289 27.6636 38.6397 20.7663 40.021C19.1467 40.3453 17.4878 40.4267 15.8443 40.2625C15.3032 40.21 14.7654 40.1286 14.2331 40.0187C7.33589 38.6397 2.3333 32.9289 2.3333 26.4389ZM16.3331 47.3452C15.2831 47.3452 15.1664 45.7119 15.1664 45.0119V42.5363C15.2598 42.548 15.3554 42.5526 15.4499 42.562C15.5666 42.5748 15.6833 42.5841 15.7999 42.5946C16.3518 42.6436 16.9082 42.6763 17.4694 42.6775H17.5277C18.0877 42.6775 18.6431 42.6436 19.1914 42.5946C19.308 42.5841 19.4317 42.5748 19.5519 42.562C19.644 42.5515 19.7397 42.548 19.8319 42.5363V45.0119C19.8319 45.7119 19.7152 47.3452 18.6652 47.3452H16.3331ZM61.8324 45.0119C58.6108 45.0119 55.9991 42.4002 55.9991 39.1787C55.9991 35.9571 58.6108 33.3454 61.8324 33.3454C65.0539 33.3454 67.6656 35.9571 67.6656 39.1787C67.6618 42.3988 65.0523 45.0081 61.8324 45.0119Z" fill="white"/>
<path d="M61.8324 35.6788C59.8994 35.6788 58.3325 37.2458 58.3325 39.1788C58.3325 41.1118 59.8994 42.6788 61.8324 42.6788C63.7654 42.6788 65.3324 41.1118 65.3324 39.1788C65.3324 37.2458 63.7654 35.6788 61.8324 35.6788ZM61.8324 40.3455C61.1881 40.3455 60.6658 39.8231 60.6658 39.1788C60.6658 38.5345 61.1881 38.0122 61.8324 38.0122C62.4767 38.0122 62.9991 38.5345 62.9991 39.1788C62.9991 39.8231 62.4767 40.3455 61.8324 40.3455Z" fill="white"/>
</svg>
