<svg width="66" height="56" viewBox="0 0 66 56" fill="none" xmlns="http://www.w3.org/2000/svg">
<path d="M64.719 53.1562H55.5916L54.1971 49.9559C54.9707 49.3814 55.5334 48.5678 55.798 47.6412C56.0627 46.7146 56.0146 45.7266 55.6611 44.8301L54.0508 40.7621C53.8399 40.2272 53.5256 39.7391 53.1259 39.3257C52.7261 38.9124 52.2489 38.5819 51.7213 38.3531C51.1938 38.1243 50.6263 38.0018 50.0513 37.9925C49.4764 37.9833 48.9053 38.0874 48.3706 38.299C47.836 38.5107 47.3483 38.8256 46.9354 39.2258C46.5226 39.6261 46.1927 40.1038 45.9646 40.6317C45.7365 41.1595 45.6148 41.7271 45.6062 42.3021C45.5977 42.877 45.7026 43.448 45.9149 43.9824L47.5252 48.0504C47.8491 48.8662 48.4106 49.5659 49.1368 50.0589C49.863 50.5519 50.7206 50.8154 51.5983 50.8153C51.7889 50.8152 51.9793 50.8024 52.1682 50.7771L53.2052 53.156H44.8344L42.8228 43.0977C42.7982 42.975 42.7527 42.8575 42.6884 42.7502L42.6871 42.7481L42.6841 42.7432L39.4069 37.281C39.3097 37.1191 39.1722 36.985 39.0079 36.892C38.8435 36.7989 38.6578 36.75 38.469 36.75H24.2502C24.0442 36.75 23.8424 36.8082 23.668 36.9179C23.4936 37.0275 23.3537 37.1842 23.2645 37.3699C23.2578 37.3836 23.2538 37.3972 23.2478 37.4119C23.2434 37.4206 23.2388 37.4274 23.2341 37.4376L21.0466 42.9063C21.0458 42.9085 21.0458 42.9108 21.045 42.9131C20.9681 43.1082 20.9488 43.3213 20.9896 43.527L22.916 53.1562H15.3977C14.8449 47.1214 15.459 41.0366 17.2063 35.2339L17.6416 33.7831C17.686 33.635 17.6983 33.4792 17.6779 33.326C17.6575 33.1728 17.6047 33.0257 17.5231 32.8944C17.5216 32.8917 17.5211 32.8888 17.5194 32.8861C17.2179 32.3859 16.8868 31.9043 16.5278 31.4437L15.4581 27.6992C15.4186 27.5611 15.3523 27.4321 15.263 27.3197C15.1736 27.2072 15.063 27.1134 14.9374 27.0437C14.8118 26.974 14.6737 26.9297 14.531 26.9133C14.3883 26.897 14.2438 26.9089 14.1057 26.9484C13.9676 26.9879 13.8386 27.0542 13.7261 27.1435C13.6137 27.2329 13.5199 27.3435 13.4502 27.4691C13.3804 27.5947 13.3361 27.7327 13.3198 27.8754C13.3034 28.0181 13.3153 28.1627 13.3548 28.3008L13.4046 28.4752C13.3198 28.4161 13.2345 28.3578 13.1485 28.3002L12.1583 25.4535C12.1114 25.3174 12.0381 25.192 11.9426 25.0843C11.8472 24.9767 11.7314 24.8889 11.602 24.8261C11.4726 24.7632 11.332 24.7265 11.1884 24.7181C11.0447 24.7096 10.9008 24.7296 10.7649 24.7769C10.629 24.8242 10.5038 24.8978 10.3964 24.9935C10.289 25.0893 10.2015 25.2053 10.139 25.3349C10.0765 25.4645 10.0402 25.6051 10.0322 25.7488C10.0241 25.8925 10.0445 26.0363 10.0922 26.1721L10.3246 26.8393C10.1493 26.7718 9.9724 26.708 9.79385 26.6479L8.85992 24.3131C8.75219 24.0438 8.54188 23.8283 8.27526 23.714C8.00863 23.5997 7.70752 23.596 7.43818 23.7038C7.16884 23.8115 6.95333 24.0218 6.83906 24.2884C6.72478 24.555 6.7211 24.8562 6.82883 25.1255L7.18703 26.021L7.15436 26.0158L5.81164 25.8244C5.66372 25.8033 5.51303 25.8126 5.36887 25.852C5.22472 25.8913 5.09015 25.9598 4.97348 26.0532C4.85681 26.1465 4.76051 26.2628 4.69052 26.3948C4.62053 26.5269 4.57834 26.6718 4.56654 26.8208C4.55066 27.1041 4.6427 27.3829 4.82413 27.6011C5.00556 27.8192 5.26291 27.9606 5.54436 27.9966L6.2568 28.0983L6.09397 28.2188C5.97906 28.3049 5.88225 28.4129 5.80907 28.5365C5.73589 28.6601 5.68777 28.7969 5.66746 28.9391C5.64715 29.0813 5.65504 29.2261 5.69069 29.3652C5.72633 29.5043 5.78904 29.6351 5.87522 29.75C5.9614 29.8649 6.06937 29.9617 6.19296 30.0349C6.31655 30.1081 6.45335 30.1562 6.59554 30.1765C6.73773 30.1968 6.88252 30.1889 7.02166 30.1533C7.1608 30.1176 7.29156 30.0549 7.40647 29.9688L9.07867 28.7146C9.3491 28.8064 9.61434 28.9099 9.87643 29.0198L9.49526 29.2342C9.37006 29.3046 9.25996 29.399 9.17124 29.5119C9.08253 29.6249 9.01693 29.7542 8.9782 29.8925C8.93946 30.0309 8.92835 30.1755 8.9455 30.3181C8.96264 30.4607 9.00771 30.5985 9.07813 30.7237C9.14854 30.8489 9.24293 30.959 9.35589 31.0477C9.46886 31.1364 9.59819 31.202 9.73651 31.2408C9.87483 31.2795 10.0194 31.2906 10.162 31.2735C10.3046 31.2563 10.4425 31.2113 10.5677 31.1408L12.1365 30.2583C13.0817 30.9166 13.9293 31.7049 14.6543 32.5999C14.655 32.6007 14.6554 32.6017 14.6555 32.6027C14.6556 32.6038 14.6555 32.6048 14.6551 32.6058C14.6547 32.6067 14.6541 32.6076 14.6533 32.6082C14.6525 32.6089 14.6515 32.6093 14.6505 32.6095L13.1137 32.8009C11.9318 32.9474 10.7402 33.0011 9.54994 32.9615L8.75397 31.7677C8.60716 31.5488 8.38627 31.3904 8.13192 31.3214C7.87758 31.2524 7.60688 31.2776 7.36962 31.3923C7.13236 31.507 6.94449 31.7035 6.84056 31.9457C6.73663 32.1878 6.72362 32.4594 6.80395 32.7104C6.33856 32.6394 5.8759 32.5543 5.41598 32.4551L4.50201 29.8277C4.45512 29.6916 4.38185 29.5662 4.28639 29.4585C4.19094 29.3509 4.07518 29.2631 3.94575 29.2002C3.81631 29.1374 3.67575 29.1007 3.53211 29.0923C3.38848 29.0838 3.24458 29.1038 3.10868 29.1511C2.97278 29.1983 2.84755 29.272 2.74014 29.3677C2.63274 29.4635 2.54529 29.5795 2.48279 29.7091C2.4203 29.8387 2.38399 29.9793 2.37594 30.123C2.3679 30.2666 2.38828 30.4105 2.43592 30.5463L2.85305 31.7453L1.62737 31.3373C1.48571 31.2901 1.33588 31.2724 1.18712 31.2853C1.03835 31.2981 0.893803 31.3414 0.762372 31.4122C0.630942 31.4831 0.515415 31.5801 0.422909 31.6973C0.330403 31.8146 0.262878 31.9495 0.224494 32.0938C0.15806 32.3698 0.198703 32.6607 0.338235 32.908C0.477767 33.1552 0.705819 33.3404 0.976447 33.4262L1.09293 33.4652L0.897424 33.5385C0.761285 33.5877 0.636263 33.6634 0.529604 33.7612C0.422945 33.8591 0.336772 33.9771 0.27608 34.1086C0.215388 34.24 0.181384 34.3821 0.176039 34.5268C0.170694 34.6714 0.194115 34.8157 0.244944 34.9512C0.295773 35.0868 0.372999 35.2109 0.472145 35.3163C0.571291 35.4218 0.690385 35.5065 0.822523 35.5656C0.954661 35.6247 1.09721 35.657 1.24192 35.6606C1.38663 35.6642 1.5306 35.639 1.66551 35.5865L4.55342 34.5036C5.05326 34.6199 5.55657 34.7209 6.06334 34.8067C5.84703 34.9889 5.70971 35.2478 5.6802 35.5291C5.65068 35.8104 5.73128 36.0921 5.90506 36.3153C6.07884 36.5384 6.3323 36.6855 6.61224 36.7258C6.89218 36.7661 7.17684 36.6964 7.40647 36.5312L9.25873 35.1421C9.60408 35.1563 9.94962 35.1634 10.2953 35.1635C10.309 35.1635 10.3227 35.1635 10.3363 35.1635L10.0499 35.6409C9.90068 35.8897 9.85636 36.1875 9.92671 36.4689C9.99707 36.7504 10.1763 36.9923 10.4251 37.1416C10.6738 37.2908 10.9717 37.3351 11.2531 37.2648C11.5345 37.1944 11.7765 37.0151 11.9257 36.7664L12.9752 35.0172C13.1119 35.0026 13.2486 34.9899 13.3844 34.9727L15.0645 34.7627C15.0449 34.8283 15.0256 34.894 15.0067 34.9598C13.8136 36.3328 12.413 37.5106 10.8556 38.4504L9.93289 37.5055C9.72821 37.3079 9.45458 37.1978 9.17009 37.1987C8.88559 37.1995 8.61261 37.3111 8.40907 37.5099C8.20552 37.7087 8.08744 37.9789 8.07988 38.2633C8.07232 38.5477 8.17587 38.8239 8.36856 39.0332L8.82369 39.4991C8.30188 39.7262 7.76868 39.9272 7.22408 40.1023L5.7966 38.7123C5.5884 38.5121 5.30946 38.4024 5.02067 38.4072C4.73188 38.4119 4.45668 38.5306 4.25513 38.7375C4.05358 38.9444 3.94204 39.2226 3.94485 39.5114C3.94766 39.8002 4.0646 40.0762 4.27014 40.2791L4.71283 40.7103C4.41324 40.7598 4.11177 40.8018 3.80844 40.8364L3.34715 40.8881C3.0693 40.919 2.81382 41.0551 2.6332 41.2685C2.45257 41.4818 2.36052 41.7563 2.37593 42.0354C2.39135 42.3146 2.51307 42.5772 2.7161 42.7694C2.91912 42.9616 3.18803 43.0688 3.4676 43.0689C3.50871 43.0688 3.54979 43.0665 3.59065 43.0619L4.05194 43.0102C4.29803 42.9829 4.54262 42.9506 4.7857 42.9134C4.69906 43.1709 4.71136 43.4515 4.82022 43.7004C4.92908 43.9494 5.1267 44.1489 5.3746 44.2601C5.6225 44.3713 5.90292 44.3863 6.16125 44.3021C6.41958 44.2179 6.63733 44.0406 6.77209 43.8047L7.65256 42.2598C8.28685 42.0646 8.91078 41.8373 9.52192 41.5786V41.9751C9.52192 42.2652 9.63715 42.5434 9.84227 42.7485C10.0474 42.9536 10.3256 43.0689 10.6157 43.0689C10.9057 43.0689 11.1839 42.9536 11.3891 42.7485C11.5942 42.5434 11.7094 42.2652 11.7094 41.9751V40.4867C12.5175 40.0176 13.2909 39.4912 14.0237 38.9115C13.0606 43.5948 12.7834 48.3932 13.201 53.1562H1.28147C0.991386 53.1562 0.713187 53.2715 0.508069 53.4766C0.302951 53.6817 0.187717 53.9599 0.187717 54.25C0.187717 54.5401 0.302951 54.8183 0.508069 55.0234C0.713187 55.2285 0.991386 55.3438 1.28147 55.3438H64.719C65.009 55.3438 65.2872 55.2285 65.4924 55.0234C65.6975 54.8183 65.8127 54.5401 65.8127 54.25C65.8127 53.9599 65.6975 53.6817 65.4924 53.4766C65.2872 53.2715 65.009 53.1562 64.719 53.1562ZM49.5592 47.2453L47.9489 43.1774C47.7354 42.638 47.7449 42.0358 47.9753 41.5034C48.2058 40.9709 48.6383 40.5519 49.1777 40.3383C49.7172 40.1248 50.3193 40.1343 50.8518 40.3647C51.3842 40.5952 51.8033 41.0277 52.0168 41.5672L53.6271 45.6351C53.8399 46.1746 53.8301 46.7765 53.5997 47.3087C53.3693 47.841 52.9372 48.2601 52.3981 48.4742C51.8587 48.6871 51.2568 48.6773 50.7245 48.4469C50.1923 48.2165 49.7732 47.7844 49.5592 47.2453ZM37.8498 38.9375L39.8185 42.2188H29.1509L26.5259 38.9375H37.8498ZM24.5686 39.9927L26.3494 42.2188H23.6782L24.5686 39.9927ZM23.3968 44.4062H27.7285L29.4785 53.1562H25.147L23.3968 44.4062ZM36.0843 53.1562L35.4281 49.875H37.5722L38.2285 53.1562H36.0843ZM40.4593 53.1562L39.5414 48.5667C39.4918 48.3188 39.3579 48.0957 39.1623 47.9354C38.9668 47.7751 38.7218 47.6875 38.469 47.6875H34.094C33.9321 47.6875 33.7723 47.7234 33.626 47.7926C33.4798 47.8618 33.3507 47.9627 33.2481 48.0878C33.1455 48.213 33.0719 48.3593 33.0327 48.5163C32.9935 48.6733 32.9897 48.8371 33.0214 48.9958L33.8535 53.1562H31.7095L29.9595 44.4062H40.8535L42.6035 53.1562H40.4593Z" fill="white"/>
<path d="M56.5283 38.5995C56.6575 38.6625 56.7978 38.6993 56.9412 38.7079C57.0846 38.7165 57.2284 38.6968 57.3642 38.6498C57.5 38.6028 57.6251 38.5295 57.7326 38.4341C57.84 38.3387 57.9275 38.223 57.9902 38.0937L59.4258 35.1429L61.393 36.0999C61.5519 36.1772 61.7272 36.2148 61.9039 36.2096C62.0805 36.2044 62.2533 36.1564 62.4074 36.0698C62.5614 35.9832 62.6922 35.8605 62.7885 35.7123C62.8848 35.5642 62.9438 35.3948 62.9603 35.2189L63.8353 25.9149C63.8562 25.6932 63.809 25.4705 63.6999 25.2764C63.5907 25.0823 63.425 24.9261 63.2248 24.8287C63.0245 24.7313 62.7993 24.6974 62.5793 24.7314C62.3592 24.7654 62.1548 24.8658 61.9933 25.0191L55.2161 31.4532C55.0878 31.5749 54.9909 31.7259 54.9337 31.8932C54.8766 32.0605 54.8608 32.2391 54.8878 32.4139C54.9148 32.5886 54.9838 32.7542 55.0888 32.8964C55.1938 33.0387 55.3317 33.1533 55.4907 33.2306L57.4581 34.1876L56.0226 37.1386C55.896 37.3994 55.8782 37.6998 55.973 37.9737C56.0679 38.2477 56.2676 38.4727 56.5283 38.5995ZM61.384 28.6139L60.9297 33.4426L57.8672 31.9534L61.384 28.6139Z" fill="white"/>
<path d="M51.594 14.875C51.594 14.5849 51.4787 14.3067 51.2736 14.1016C51.0685 13.8965 50.7903 13.7813 50.5002 13.7813H35.1877C34.8976 13.7813 34.6194 13.8965 34.4143 14.1016C34.2092 14.3067 34.094 14.5849 34.094 14.875C34.094 15.1651 34.2092 15.4433 34.4143 15.6484C34.6194 15.8535 34.8976 15.9688 35.1877 15.9688H50.5002C50.7903 15.9688 51.0685 15.8535 51.2736 15.6484C51.4787 15.4433 51.594 15.1651 51.594 14.875Z" fill="white"/>
<path d="M35.1877 11.5938H52.6877C52.9778 11.5938 53.256 11.4785 53.4611 11.2734C53.6662 11.0683 53.7815 10.7901 53.7815 10.5C53.7815 10.2099 53.6662 9.93172 53.4611 9.7266C53.256 9.52149 52.9778 9.40625 52.6877 9.40625H35.1877C34.5387 9.40625 33.9043 9.21381 33.3647 8.85326C32.8251 8.49271 32.4046 7.98025 32.1562 7.38068C31.9079 6.78111 31.8429 6.12136 31.9695 5.48486C32.0961 4.84836 32.4086 4.2637 32.8675 3.80481C33.3264 3.34592 33.9111 3.03341 34.5476 2.9068C35.1841 2.78019 35.8438 2.84517 36.4434 3.09352C37.043 3.34187 37.5554 3.76244 37.916 4.30204C38.2765 4.84164 38.469 5.47603 38.469 6.125C38.469 6.41508 38.5842 6.69328 38.7893 6.8984C38.9944 7.10352 39.2726 7.21875 39.5627 7.21875C39.8528 7.21875 40.131 7.10352 40.3361 6.8984C40.5412 6.69328 40.6565 6.41508 40.6565 6.125C40.6565 5.04339 40.3357 3.98606 39.7348 3.08673C39.1339 2.1874 38.2798 1.48645 37.2805 1.07254C36.2812 0.65862 35.1816 0.55032 34.1208 0.761333C33.06 0.972346 32.0855 1.49319 31.3207 2.25801C30.5559 3.02283 30.0351 3.99727 29.824 5.0581C29.613 6.11894 29.7213 7.21852 30.1352 8.2178C30.5492 9.21709 31.2501 10.0712 32.1494 10.6721C33.0488 11.273 34.1061 11.5938 35.1877 11.5938Z" fill="white"/>
<path d="M30.8127 29.0938C32.2626 29.0921 33.6527 28.5154 34.6779 27.4902C35.7031 26.465 36.2798 25.0749 36.2815 23.625C36.2815 23.3349 36.1662 23.0567 35.9611 22.8516C35.756 22.6465 35.4778 22.5313 35.1877 22.5313C34.8976 22.5313 34.6194 22.6465 34.4143 22.8516C34.2092 23.0567 34.094 23.3349 34.094 23.625C34.094 24.274 33.9015 24.9084 33.541 25.448C33.1804 25.9876 32.668 26.4081 32.0684 26.6565C31.4688 26.9048 30.8091 26.9698 30.1726 26.8432C29.5361 26.7166 28.9514 26.4041 28.4925 25.9452C28.0336 25.4863 27.7211 24.9016 27.5945 24.2651C27.4679 23.6286 27.5329 22.9689 27.7812 22.3693C28.0296 21.7698 28.4501 21.2573 28.9897 20.8967C29.5293 20.5362 30.1637 20.3438 30.8127 20.3438H47.219C47.509 20.3438 47.7872 20.2285 47.9924 20.0234C48.1975 19.8183 48.3127 19.5401 48.3127 19.25C48.3127 18.9599 48.1975 18.6817 47.9924 18.4766C47.7872 18.2715 47.509 18.1563 47.219 18.1563H30.8127C29.3623 18.1563 27.9713 18.7324 26.9457 19.758C25.9201 20.7836 25.344 22.1746 25.344 23.625C25.344 25.0754 25.9201 26.4664 26.9457 27.492C27.9713 28.5176 29.3623 29.0938 30.8127 29.0938Z" fill="white"/>
<path d="M51.594 20.3438H57.0627C57.3528 20.3438 57.631 20.2285 57.8361 20.0234C58.0412 19.8183 58.1565 19.5401 58.1565 19.25C58.1565 18.9599 58.0412 18.6817 57.8361 18.4766C57.631 18.2715 57.3528 18.1563 57.0627 18.1563H51.594C51.3039 18.1563 51.0257 18.2715 50.8206 18.4766C50.6154 18.6817 50.5002 18.9599 50.5002 19.25C50.5002 19.5401 50.6154 19.8183 50.8206 20.0234C51.0257 20.2285 51.3039 20.3438 51.594 20.3438Z" fill="white"/>
<path d="M54.8752 15.9688H60.344C60.634 15.9688 60.9122 15.8535 61.1174 15.6484C61.3225 15.4433 61.4377 15.1651 61.4377 14.875C61.4377 14.5849 61.3225 14.3067 61.1174 14.1016C60.9122 13.8965 60.634 13.7813 60.344 13.7813H54.8752C54.5851 13.7813 54.3069 13.8965 54.1018 14.1016C53.8967 14.3067 53.7815 14.5849 53.7815 14.875C53.7815 15.1651 53.8967 15.4433 54.1018 15.6484C54.3069 15.8535 54.5851 15.9688 54.8752 15.9688Z" fill="white"/>
<path d="M57.0627 11.5938H62.5315C62.8215 11.5938 63.0997 11.4785 63.3049 11.2734C63.51 11.0683 63.6252 10.7901 63.6252 10.5C63.6252 10.2099 63.51 9.93172 63.3049 9.7266C63.0997 9.52149 62.8215 9.40625 62.5315 9.40625H57.0627C56.7726 9.40625 56.4944 9.52149 56.2893 9.7266C56.0842 9.93172 55.969 10.2099 55.969 10.5C55.969 10.7901 56.0842 11.0683 56.2893 11.2734C56.4944 11.4785 56.7726 11.5938 57.0627 11.5938Z" fill="white"/>
<path d="M14.7268 20.0234C14.9319 20.2285 15.2101 20.3438 15.5002 20.3438C15.7903 20.3438 16.0685 20.2285 16.2736 20.0234C16.4788 19.8183 16.594 19.5401 16.594 19.25C16.594 18.9599 16.4788 18.6817 16.2736 18.4766L15.1799 17.3828C15.0783 17.2813 14.9577 17.2007 14.825 17.1457C14.6923 17.0908 14.5501 17.0625 14.4065 17.0625C14.2628 17.0625 14.1206 17.0908 13.9879 17.1457C13.8552 17.2007 13.7346 17.2813 13.633 17.3828C13.5315 17.4844 13.4509 17.605 13.3959 17.7377C13.341 17.8704 13.3127 18.0126 13.3127 18.1563C13.3127 18.2999 13.341 18.4421 13.3959 18.5748C13.4509 18.7075 13.5315 18.8281 13.633 18.9297L14.7268 20.0234Z" fill="white"/>
<path d="M22.6673 15.8532C22.7957 15.9176 22.9356 15.956 23.0789 15.9662C23.2222 15.9765 23.3661 15.9584 23.5024 15.913C23.6387 15.8676 23.7647 15.7957 23.8732 15.7015C23.9817 15.6074 24.0705 15.4927 24.1347 15.3642L25.2284 13.1767C25.3555 12.9176 25.375 12.6187 25.2827 12.3453C25.1904 12.0718 24.9937 11.846 24.7356 11.7169C24.4775 11.5878 24.1788 11.566 23.9046 11.6561C23.6305 11.7463 23.4031 11.9412 23.272 12.1983L22.1782 14.3858C22.0485 14.6453 22.0272 14.9456 22.1189 15.2208C22.2106 15.496 22.4078 15.7235 22.6673 15.8532Z" fill="white"/>
<path d="M42.2394 29.2093C41.9803 29.0822 41.6814 29.0627 41.408 29.155C41.1345 29.2473 40.9087 29.444 40.7796 29.7021C40.6505 29.9603 40.6287 30.2589 40.7189 30.5331C40.809 30.8072 41.0039 31.0346 41.261 31.1657L43.4485 32.2595C43.5771 32.325 43.7174 32.3645 43.8614 32.3756C44.0053 32.3867 44.15 32.3692 44.2871 32.324C44.4242 32.2789 44.5511 32.2071 44.6603 32.1128C44.7696 32.0184 44.859 31.9034 44.9236 31.7743C44.9882 31.6452 45.0265 31.5045 45.0365 31.3605C45.0464 31.2165 45.0278 31.072 44.9816 30.9352C44.9355 30.7984 44.8627 30.6722 44.7675 30.5637C44.6722 30.4552 44.5565 30.3666 44.4269 30.303L42.2394 29.2093Z" fill="white"/>
<path d="M22.6673 31.1657L24.8548 32.2595C25.1139 32.3865 25.4128 32.406 25.6862 32.3137C25.9596 32.2214 26.1855 32.0248 26.3146 31.7666C26.4437 31.5085 26.4655 31.2098 26.3753 30.9357C26.2851 30.6615 26.0903 30.4341 25.8331 30.303L23.6456 29.2093C23.517 29.1437 23.3767 29.1042 23.2328 29.0932C23.0889 29.0821 22.9442 29.0996 22.8071 29.1447C22.6699 29.1898 22.5431 29.2616 22.4339 29.356C22.3246 29.4503 22.2351 29.5654 22.1706 29.6945C22.106 29.8236 22.0677 29.9642 22.0577 30.1082C22.0477 30.2522 22.0664 30.3968 22.1126 30.5335C22.1587 30.6703 22.2315 30.7966 22.3267 30.9051C22.4219 31.0136 22.5377 31.1022 22.6673 31.1657Z" fill="white"/>
<path d="M3.7893 16.7422C3.99442 16.9473 4.27263 17.0625 4.56272 17.0625C4.8528 17.0625 5.13101 16.9473 5.33613 16.7422C5.54126 16.537 5.65649 16.2588 5.65649 15.9688C5.65649 15.6787 5.54126 15.4005 5.33613 15.1953L3.14863 13.0078C2.94351 12.8027 2.6653 12.6875 2.37522 12.6875C2.08513 12.6875 1.80692 12.8027 1.6018 13.0078C1.39668 13.213 1.28144 13.4912 1.28144 13.7813C1.28144 14.0713 1.39668 14.3495 1.6018 14.5547L3.7893 16.7422Z" fill="white"/>
</svg>
