<svg width="70" height="26" viewBox="0 0 70 26" fill="none" xmlns="http://www.w3.org/2000/svg">
<path d="M4.02733 18.2048C4.32315 18.9898 4.73269 19.6611 5.25605 20.2185C5.7794 20.776 6.39942 21.2026 7.1161 21.4984C7.83286 21.7942 8.61216 21.9421 9.45405 21.9421C10.2732 21.9421 11.0411 21.7885 11.7579 21.4812C12.4746 21.174 13.1003 20.7417 13.635 20.1843C14.1697 19.6268 14.585 18.9614 14.8808 18.1877C15.1766 17.4141 15.3245 16.5496 15.3245 15.5938V0.849609H18.9081V24.7407H15.3586V22.5222C14.5622 23.364 13.6236 24.0125 12.5428 24.4677C11.462 24.9227 10.296 25.1502 9.04451 25.1502C7.77026 25.1502 6.58142 24.9283 5.47785 24.4847C4.37435 24.041 3.41864 23.4096 2.61096 22.5905C1.80327 21.7713 1.16611 20.7874 0.699693 19.6382C0.233206 18.4892 0 17.2094 0 15.7986V0.849609H3.58365V15.5938C3.58365 16.5496 3.73152 17.4198 4.02733 18.2048Z" fill="white"/>
<path d="M25.0853 0.849609V9.55277C25.8817 8.75641 26.8033 8.12506 27.8499 7.65857C28.8965 7.19209 30.0343 6.95888 31.2629 6.95888C32.5371 6.95888 33.7316 7.19775 34.8465 7.67557C35.9614 8.15338 36.9284 8.80187 37.7476 9.62104C38.5667 10.4402 39.2152 11.4072 39.693 12.5221C40.1709 13.637 40.4097 14.8202 40.4097 16.0717C40.4097 17.323 40.1709 18.5005 39.693 19.604C39.2152 20.7076 38.5667 21.669 37.7476 22.488C36.9284 23.3072 35.9614 23.9557 34.8465 24.4335C33.7316 24.9113 32.5371 25.1502 31.2629 25.1502C30.0342 25.1502 28.8909 24.9169 27.8328 24.4505C26.7748 23.984 25.8476 23.3526 25.0512 22.5563V24.7406H21.6382V0.849609H25.0853ZM25.4778 18.4266C25.785 19.1548 26.2117 19.7919 26.7577 20.3379C27.3038 20.884 27.9409 21.3164 28.669 21.6349C29.3972 21.9535 30.1821 22.1127 31.024 22.1127C31.8432 22.1127 32.6167 21.9535 33.3448 21.6349C34.0729 21.3164 34.7043 20.8841 35.2391 20.3379C35.7738 19.7919 36.2004 19.1548 36.5189 18.4266C36.8375 17.6985 36.9967 16.9136 36.9967 16.0717C36.9967 15.2298 36.8375 14.4391 36.5189 13.6996C36.2004 12.9601 35.7738 12.3173 35.2391 11.7712C34.7043 11.2252 34.073 10.7985 33.3448 10.4914C32.6167 10.1843 31.8431 10.0306 31.024 10.0306C30.2049 10.0306 29.4313 10.1842 28.7032 10.4914C27.9751 10.7986 27.338 11.2252 26.7919 11.7712C26.2459 12.3173 25.8135 12.9601 25.495 13.6996C25.1764 14.4391 25.0172 15.2298 25.0172 16.0717C25.0171 16.9136 25.1707 17.6985 25.4778 18.4266Z" fill="white"/>
<path d="M42.3548 12.5563C42.8098 11.4641 43.4357 10.5028 44.2319 9.67232C45.0282 8.84182 45.9726 8.18767 47.0648 7.70985C48.157 7.23204 49.3401 6.99317 50.6143 6.99317C51.8657 6.99317 53.0262 7.22071 54.0956 7.67572C55.165 8.1308 56.0865 8.76222 56.8601 9.56999C57.6337 10.3777 58.2368 11.3334 58.669 12.4369C59.1013 13.5405 59.3175 14.7407 59.3175 16.0377V17.164H45.1535C45.2673 17.8693 45.4949 18.5235 45.8361 19.1264C46.1775 19.7293 46.604 20.2527 47.116 20.6964C47.6279 21.1401 48.2082 21.4871 48.8566 21.7373C49.5051 21.9876 50.1934 22.1128 50.9215 22.1128C52.9921 22.1128 54.6645 21.2595 55.9387 19.553L58.4302 21.396C57.5655 22.5564 56.4962 23.4666 55.222 24.1264C53.9478 24.7862 52.5143 25.1162 50.9216 25.1162C49.6246 25.1162 48.413 24.8885 47.2867 24.4335C46.1604 23.9785 45.1821 23.3414 44.3516 22.5222C43.5211 21.703 42.8669 20.7417 42.3891 19.6382C41.9113 18.5347 41.6723 17.3344 41.6723 16.0375C41.6722 14.8089 41.8998 13.6484 42.3548 12.5563ZM47.1501 11.2081C46.1831 12.0159 45.5403 13.091 45.2218 14.4334H55.8363C55.5405 13.091 54.909 12.0159 53.942 11.2081C52.975 10.4004 51.843 9.99652 50.5461 9.99652C49.2491 9.99652 48.1172 10.4004 47.1501 11.2081Z" fill="white"/>
<path d="M65.7679 11.6006C65.0398 12.3969 64.6757 13.4777 64.6757 14.8429V24.7408H61.2285V7.33437H64.6415V9.48457C65.0738 8.77922 65.637 8.22173 66.3309 7.81218C67.0249 7.40256 67.8497 7.19775 68.8054 7.19775H69.9999V10.406H68.5665C67.4288 10.4061 66.4959 10.8042 65.7679 11.6006Z" fill="white"/>
</svg>
