<svg width="70" height="29" viewBox="0 0 70 29" fill="none" xmlns="http://www.w3.org/2000/svg">
<path d="M29.0476 10.5229H33.7144V12.8568H29.0476V10.5229Z" fill="white"/>
<path d="M68.8825 7.03455L60.957 5.90275C59.5119 5.01496 58.0121 4.22023 56.4659 3.52282C51.3594 1.20984 45.8172 0.0163129 40.2109 0.0224848H38.8341C32.218 0.0272322 25.7077 1.68743 19.8968 4.85165L15.897 7.0336C11.215 7.0863 6.62321 8.33157 2.55555 10.6503C0.902469 11.5983 -0.118245 13.3573 -0.121094 15.2625V22.1905C-0.121094 22.8352 0.401132 23.3574 1.04584 23.3574H4.96349C6.23772 26.9926 10.2176 28.9068 13.8527 27.6326C15.8538 26.9313 17.4266 25.358 18.1278 23.3574H49.3C50.5742 26.9926 54.554 28.9068 58.1892 27.6326C60.1898 26.9313 61.7631 25.358 62.4643 23.3574H62.8831C63.0317 23.3574 63.1788 23.3294 63.317 23.2743L67.096 21.758C68.7842 21.0895 69.8899 19.4555 69.8837 17.6405V8.18962C69.8837 7.60947 69.4569 7.11716 68.8825 7.03455ZM16.1187 21.9574C15.6026 24.4826 13.1373 26.1115 10.6121 25.5954C8.0864 25.0793 6.45753 22.614 6.97358 20.0883C7.49011 17.5631 9.95549 15.9342 12.4807 16.4503C14.6536 16.8942 16.2137 18.806 16.2132 21.024C16.2132 21.3374 16.1814 21.6502 16.1187 21.9574ZM37.2147 21.024H18.5466C18.5466 17.1577 15.4127 14.0234 11.5464 14.0234C7.68001 14.0234 4.5457 17.1577 4.5457 21.024H2.21231V15.2625C2.21373 14.1938 2.78628 13.2068 3.71394 12.676C7.52144 10.5021 11.8293 9.35798 16.2132 9.35656H37.2147V21.024ZM37.2147 7.02316H20.7893L21.0143 6.9002C26.0025 4.18937 31.5434 2.6526 37.2147 2.40716V7.02316ZM39.5481 2.35588H40.2085C44.9104 2.35066 49.5696 3.24319 53.9369 4.986L51.8997 7.02316H39.5481V2.35588ZM60.4552 21.9574C59.9391 24.4826 57.4738 26.1115 54.9481 25.5954C52.4229 25.0793 50.794 22.614 51.3101 20.0883C51.8261 17.5631 54.292 15.9342 56.8172 16.4503C58.9901 16.8942 60.5501 18.806 60.5497 21.024C60.5497 21.3374 60.5179 21.6502 60.4552 21.9574ZM67.5503 10.523H64.05V12.8569H67.5503V17.6405C67.5532 18.5003 67.0291 19.2741 66.2296 19.5898L62.8831 20.9338C62.8831 20.8265 62.8693 20.7202 62.8622 20.6129C62.8551 20.5056 62.8527 20.3798 62.8413 20.263C62.8294 20.1462 62.8062 20.0294 62.7876 19.9131C62.7687 19.7963 62.7549 19.6795 62.7316 19.5737C62.7084 19.4673 62.6742 19.3496 62.6438 19.2385C62.6134 19.1279 62.5901 19.0158 62.555 18.9071C62.5204 18.7989 62.4781 18.6949 62.4387 18.5886C62.3988 18.4827 62.3627 18.373 62.3219 18.2676C62.2811 18.1627 62.226 18.0673 62.1771 17.9681C62.1282 17.8688 62.0803 17.7601 62.0257 17.6599C61.9706 17.5598 61.9089 17.4743 61.8562 17.3813C61.804 17.2877 61.7399 17.1814 61.6734 17.086C61.6065 16.9901 61.5447 16.9146 61.4807 16.8282C61.4166 16.7418 61.3439 16.6402 61.2694 16.5505C61.1949 16.4607 61.1251 16.3905 61.0524 16.3169C60.9803 16.2438 60.8996 16.1445 60.8193 16.0629C60.7386 15.9812 60.6593 15.9167 60.5791 15.8445C60.4984 15.7723 60.412 15.6869 60.3232 15.6109C60.2349 15.5354 60.1447 15.477 60.0564 15.4106C59.9676 15.3441 59.8788 15.2729 59.7858 15.2107C59.6923 15.149 59.5873 15.0944 59.4872 15.0289C59.3865 14.9634 59.3049 14.9121 59.2104 14.8622C59.1159 14.8119 58.9982 14.7592 58.8909 14.7079C58.7836 14.6567 58.6996 14.6111 58.6003 14.5693C58.5011 14.5271 58.3668 14.4829 58.2504 14.4411C58.1337 14.3989 58.0577 14.3661 57.9585 14.3348C57.8255 14.294 57.6893 14.2645 57.5535 14.2308C57.4647 14.2099 57.3798 14.1819 57.29 14.1634C57.1467 14.134 56.9995 14.1178 56.8537 14.0965C56.7673 14.0851 56.6847 14.0661 56.5983 14.058C56.3647 14.0347 56.1316 14.0219 55.8867 14.0219C52.0217 14.0257 48.8898 17.1577 48.886 21.0226H39.5486V9.35608H52.3825C52.6921 9.35608 52.9888 9.23312 53.2072 9.01426L56.2328 5.98868C57.5027 6.59303 58.7375 7.2686 59.9315 8.01206C60.0692 8.09799 60.223 8.15449 60.384 8.17775L67.5503 9.20084V10.523Z" fill="white"/>
</svg>
