<svg width="502" height="263" viewBox="0 0 502 263" fill="none" xmlns="http://www.w3.org/2000/svg">
<path d="M87.6487 6.81637L115.875 8.21775L122.884 8.57374L122.296 19.5248L121.815 19.5417L120.463 45.0941L112.838 44.7155L81.5283 42.9299L57.7987 41.4325L60.3442 5.31329L87.6487 6.81637" fill="#B4CCDD"/>
<path d="M87.6487 6.81637L115.875 8.21775L122.884 8.57374L122.296 19.5248L121.815 19.5417L120.463 45.0941L112.838 44.7155L81.5283 42.9299L57.7987 41.4325L60.3442 5.31329L87.6487 6.81637" stroke="white" stroke-linejoin="bevel"/>
<path d="M4.15135 0.956604L11.471 1.52167L41.4568 3.99102L59.5297 5.26243L60.3442 5.31328L57.7987 41.4325L50.2245 40.9409L1.45314 37.5561L4.15135 0.956604" fill="#B4CCDD"/>
<path d="M4.15135 0.956604L11.471 1.52167L41.4568 3.99102L59.5297 5.26243L60.3442 5.31328L57.7987 41.4325L50.2245 40.9409L1.45314 37.5561L4.15135 0.956604" stroke="white" stroke-linejoin="bevel"/>
<path d="M488.76 15.4224L488.992 32.4083L489.116 39.6695L466.936 39.7486L466.224 15.6032L488.76 15.4224" fill="#B4CCDD"/>
<path d="M488.76 15.4224L488.992 32.4083L489.116 39.6695L466.936 39.7486L466.224 15.6032L488.76 15.4224" stroke="white" stroke-linejoin="bevel"/>
<path d="M462.422 15.6258L466.224 15.6032L466.936 39.7486L466.71 51.5642L447.941 51.6885L441.878 45.3258L443.077 15.8066L462.422 15.6258Z" fill="#B4CCDD" stroke="white" stroke-linejoin="bevel"/>
<path d="M466.71 51.5641L466.654 77.1109L460.386 77.1844L460.465 83.5753L455.21 83.5979L441.595 83.6544L441.544 70.8839L441.702 51.7393L447.941 51.6885L466.71 51.5641" fill="#B4CCDD"/>
<path d="M466.71 51.5641L466.654 77.1109L460.386 77.1844L460.465 83.5753L455.21 83.5979L441.595 83.6544L441.544 70.8839L441.702 51.7393L447.941 51.6885L466.71 51.5641" stroke="white" stroke-linejoin="bevel"/>
<path d="M489.116 39.6694L489.291 52.0388L492.889 76.7718L479.177 76.9809L466.654 77.1109L466.71 51.5641L466.936 39.7485L489.116 39.6694" fill="#B4CCDD"/>
<path d="M489.116 39.6694L489.291 52.0388L492.889 76.7718L479.177 76.9809L466.654 77.1109L466.71 51.5641L466.936 39.7485L489.116 39.6694" stroke="white" stroke-linejoin="bevel"/>
<path d="M479.177 76.9809L492.889 76.7719L493.579 81.1342L498.783 115.078L479.076 115.366L478.815 96.1028L479.307 88.2371L479.177 76.9809" fill="#B4CCDD"/>
<path d="M479.177 76.9809L492.889 76.7719L493.579 81.1342L498.783 115.078L479.076 115.366L478.815 96.1028L479.307 88.2371L479.177 76.9809" stroke="white" stroke-linejoin="bevel"/>
<path d="M466.654 77.1109L479.177 76.981L479.307 88.2371L478.815 96.1029L479.075 115.366L460.205 115.541L451.975 102.833L451.844 102.629L450.9 95.9051L451.132 91.7519L451.488 91.0681L452.659 90.0227L453.474 89.9832L453.706 89.7346L455.233 86.152L455.21 83.5979L460.465 83.5753L460.386 77.1844L466.654 77.1109" fill="#90ACBE"/>
<path d="M466.654 77.1109L479.177 76.981L479.307 88.2371L478.815 96.1029L479.075 115.366L460.205 115.541L451.975 102.833L451.844 102.629L450.9 95.9051L451.132 91.7519L451.488 91.0681L452.659 90.0227L453.474 89.9832L453.706 89.7346L455.233 86.152L455.21 83.5979L460.465 83.5753L460.386 77.1844L466.654 77.1109" stroke="white" stroke-linejoin="bevel"/>
<path d="M498.783 115.078L501.453 132.68L501.43 133.957L497.788 137.698L486.593 138.104L483.889 136.324L482.69 135.991L481.547 136.115L481.219 136.274L478.974 138.483L473.34 133.058L471.4 133.087L468.492 132.324L467.621 132.013L466.71 131.177L464.894 128.707L460.205 115.541L479.076 115.366L498.783 115.078" fill="#B4CCDD"/>
<path d="M498.783 115.078L501.453 132.68L501.43 133.957L497.788 137.698L486.593 138.104L483.889 136.324L482.69 135.991L481.547 136.115L481.219 136.274L478.974 138.483L473.34 133.058L471.4 133.087L468.492 132.324L467.621 132.013L466.71 131.177L464.894 128.707L460.205 115.541L479.076 115.366L498.783 115.078" stroke="white" stroke-linejoin="bevel"/>
<path d="M464.894 128.707L466.71 131.177L467.621 132.013L468.492 132.324L471.399 133.087L473.34 133.058L478.974 138.483L479.019 145.789L474.584 147.4L472.31 147.422L472.44 158.017L447.438 158.249L447.381 150.762L441.137 150.785L441.08 147.677L441.295 140.851L447.585 141.009L451.845 141.766L457.507 138.415L459.385 134.686L463.933 129.34L464.894 128.707" fill="#B4CCDD"/>
<path d="M464.894 128.707L466.71 131.177L467.621 132.013L468.492 132.324L471.399 133.087L473.34 133.058L478.974 138.483L479.019 145.789L474.584 147.4L472.31 147.422L472.44 158.017L447.438 158.249L447.381 150.762L441.137 150.785L441.08 147.677L441.295 140.851L447.585 141.009L451.845 141.766L457.507 138.415L459.385 134.686L463.933 129.34L464.894 128.707" stroke="white" stroke-linejoin="bevel"/>
<path d="M501.43 133.957L501.074 166.731L500.921 181.779L500.797 198.007L472.31 198.437L464.894 185.779L464.77 172.992L468.39 167.669L472.542 166.527L472.31 147.422L474.584 147.4L479.019 145.789L478.974 138.483L481.219 136.274L481.547 136.115L482.69 135.991L483.889 136.324L486.593 138.104L497.788 137.698L501.43 133.957" fill="#B4CCDD"/>
<path d="M501.43 133.957L501.074 166.731L500.921 181.779L500.797 198.007L472.31 198.437L464.894 185.779L464.77 172.992L468.39 167.669L472.542 166.527L472.31 147.422L474.584 147.4L479.019 145.789L478.974 138.483L481.219 136.274L481.547 136.115L482.69 135.991L483.889 136.324L486.593 138.104L497.788 137.698L501.43 133.957" stroke="white" stroke-linejoin="bevel"/>
<path d="M472.44 158.017L472.542 166.527L468.39 167.669L464.77 172.992L464.894 185.779L437.771 185.96V179.36L438.048 160.436L445.905 160.362L447.438 158.249L472.44 158.017" fill="#B4CCDD"/>
<path d="M472.44 158.017L472.542 166.527L468.39 167.669L464.77 172.992L464.894 185.779L437.771 185.96V179.36L438.048 160.436L445.905 160.362L447.438 158.249L472.44 158.017" stroke="white" stroke-linejoin="bevel"/>
<path d="M441.295 140.851L441.08 147.677L441.137 150.784L447.381 150.762L447.438 158.249L445.905 160.362L438.048 160.436L437.771 179.36V185.96L428.415 192.402L415.846 192.453V186.056H403.328V179.693L403.56 158.984L405.211 155.927L408.091 152.005L408.605 151.7L409.776 151.525L411.92 151.626L423.675 149.157L425.869 148.157L437.335 141.794L441.295 140.851" fill="#B4CCDD"/>
<path d="M441.295 140.851L441.08 147.677L441.137 150.784L447.381 150.762L447.438 158.249L445.905 160.362L438.048 160.436L437.771 179.36V185.96L428.415 192.402L415.846 192.453V186.056H403.328V179.693L403.56 158.984L405.211 155.927L408.091 152.005L408.605 151.7L409.776 151.525L411.92 151.626L423.675 149.157L425.869 148.157L437.335 141.794L441.295 140.851" stroke="white" stroke-linejoin="bevel"/>
<path d="M403.328 179.693V198.844L400.143 205.268L384.435 205.212L378.111 198.821L378.292 186.034H384.587L384.616 179.648L403.328 179.693" fill="#B4CCDD"/>
<path d="M403.328 179.693V198.844L400.143 205.268L384.435 205.212L378.111 198.821L378.292 186.034H384.587L384.616 179.648L403.328 179.693" stroke="white" stroke-linejoin="bevel"/>
<path d="M403.328 186.056H415.846V192.453L428.415 192.402L428.443 198.77L422.04 199.273L422.068 224.441H409.318L384.361 224.368L384.435 205.212L400.143 205.268L403.328 198.844V186.056" fill="#B4CCDD"/>
<path d="M403.328 186.056H415.846V192.453L428.415 192.402L428.443 198.77L422.04 199.273L422.068 224.441H409.318L384.361 224.368L384.435 205.212L400.143 205.268L403.328 198.844V186.056" stroke="white" stroke-linejoin="bevel"/>
<path d="M437.771 185.96L464.894 185.779L472.31 198.437L465.794 198.482L465.997 217.79L462.27 217.819L459.719 219.197L459.464 224.21L422.068 224.441L422.04 199.273L428.443 198.77L428.415 192.402L437.771 185.96" fill="#B4CCDD"/>
<path d="M437.771 185.96L464.894 185.779L472.31 198.437L465.794 198.482L465.997 217.79L462.27 217.819L459.719 219.197L459.464 224.21L422.068 224.441L422.04 199.273L428.443 198.77L428.415 192.402L437.771 185.96" stroke="white" stroke-linejoin="bevel"/>
<path d="M472.31 198.437L500.797 198.007L500.616 221.282L500.339 261.73L484.557 257.193L477.062 254.136L466.71 245.857L459.645 239.822L459.464 224.21L459.719 219.197L462.27 217.819L465.997 217.79L465.794 198.482L472.31 198.437Z" fill="#B4CCDD" stroke="white" stroke-linejoin="bevel"/>
<path d="M459.464 224.21L459.645 239.822L455.821 238.545L455.391 238.528L455.188 238.63L455.137 238.653H455.103L453.807 240.613L453.779 240.715V240.845L453.756 240.919L453.779 240.969L454.011 241.455V241.563L454.113 242.196L454.011 242.93L453.683 243.67L453.344 243.998L451.737 245.044L451.262 245.094L450.368 245.196L448.609 245.428H448.581L444.497 245.631L442.234 245.45L436.266 244.659L436.04 244.456L435.802 244.049V243.998L435.785 243.625L435.966 243.111L435.983 242.625L435.344 240.998L434.886 240.817L432.929 240.715L428.517 243.004L423.465 245.631L423.443 245.654L418.42 245.145L413.73 241.455L412.684 240.133L412.554 239.721L412.531 226.735L409.318 224.441H422.068L459.464 224.21" fill="#B4CCDD"/>
<path d="M459.464 224.21L459.645 239.822L455.821 238.545L455.391 238.528L455.188 238.63L455.137 238.653H455.103L453.807 240.613L453.779 240.715V240.845L453.756 240.919L453.779 240.969L454.011 241.455V241.563L454.113 242.196L454.011 242.93L453.683 243.67L453.344 243.998L451.737 245.044L451.262 245.094L450.368 245.196L448.609 245.428H448.581L444.497 245.631L442.234 245.45L436.266 244.659L436.04 244.456L435.802 244.049V243.998L435.785 243.625L435.966 243.111L435.983 242.625L435.344 240.998L434.886 240.817L432.929 240.715L428.517 243.004L423.465 245.631L423.443 245.654L418.42 245.145L413.73 241.455L412.684 240.133L412.554 239.721L412.531 226.735L409.318 224.441H422.068L459.464 224.21" stroke="white" stroke-linejoin="bevel"/>
<path d="M409.318 224.441L412.531 226.735L412.554 239.721L412.684 240.133L413.73 241.455L418.42 245.145L423.443 245.654L418.267 247.592L415.337 247.055L411.847 246.366L411.026 246.451L409.725 246.547L402.943 247.112L399.883 247.818L399.374 249.604L398.995 251.361L398.966 251.542L398.916 251.745L398.74 252.305L398.587 252.791L398.559 252.842L398.486 252.938L397.92 253.525L397.846 253.616L396.749 254.085L395.499 254.418L386.499 256.639L385.917 255.842L383.292 252.277V252.254L382.5 252L381.787 251.921L378.699 252.508H378.62L378.06 252.124L371.866 247.971L371.815 247.796L371.764 247.445L371.713 246.547L371.917 245.377L373.653 227.442L384.361 224.368L409.318 224.441" fill="#B4CCDD"/>
<path d="M409.318 224.441L412.531 226.735L412.554 239.721L412.684 240.133L413.73 241.455L418.42 245.145L423.443 245.654L418.267 247.592L415.337 247.055L411.847 246.366L411.026 246.451L409.725 246.547L402.943 247.112L399.883 247.818L399.374 249.604L398.995 251.361L398.966 251.542L398.916 251.745L398.74 252.305L398.587 252.791L398.559 252.842L398.486 252.938L397.92 253.525L397.846 253.616L396.749 254.085L395.499 254.418L386.499 256.639L385.917 255.842L383.292 252.277V252.254L382.5 252L381.787 251.921L378.699 252.508H378.62L378.06 252.124L371.866 247.971L371.815 247.796L371.764 247.445L371.713 246.547L371.917 245.377L373.653 227.442L384.361 224.368L409.318 224.441" stroke="white" stroke-linejoin="bevel"/>
<path d="M352.774 223.012L368.398 223.17L371.56 223.95L373.857 226.656V227.114L373.653 227.442L371.916 245.377L365.875 248.101L365.824 248.123L362.894 248.615L357.204 246.874L356.593 246.451L355.603 245.343L352.543 239.06L350.529 230.454L352.774 223.012" fill="#B4CCDD"/>
<path d="M352.774 223.012L368.398 223.17L371.56 223.95L373.857 226.656V227.114L373.653 227.442L371.916 245.377L365.875 248.101L365.824 248.123L362.894 248.615L357.204 246.874L356.593 246.451L355.603 245.343L352.543 239.06L350.529 230.454L352.774 223.012" stroke="white" stroke-linejoin="bevel"/>
<path d="M359.376 198.64L378.111 198.821L384.435 205.212L384.361 224.368L373.653 227.442L373.857 227.114V226.656L371.56 223.95L368.398 223.17L352.774 223.012L352.899 211.298H356.033L356.191 198.618L359.376 198.64" fill="#B4CCDD"/>
<path d="M359.376 198.64L378.111 198.821L384.435 205.212L384.361 224.368L373.653 227.442L373.857 227.114V226.656L371.56 223.95L368.398 223.17L352.774 223.012L352.899 211.298H356.033L356.191 198.618L359.376 198.64" stroke="white" stroke-linejoin="bevel"/>
<path d="M379.643 169.127L384.616 179.648L384.587 186.034H378.292L378.111 198.821L359.376 198.64L359.421 192.249L353.154 192.198L353.182 189.017L353.335 173.048L353.538 165.002L362.691 169.782L379.643 169.127" fill="#B4CCDD"/>
<path d="M379.643 169.127L384.616 179.648L384.587 186.034H378.292L378.111 198.821L359.376 198.64L359.421 192.249L353.154 192.198L353.182 189.017L353.335 173.048L353.538 165.002L362.691 169.782L379.643 169.127" stroke="white" stroke-linejoin="bevel"/>
<path d="M353.335 173.048L353.182 189.017L340.635 188.865L337.553 189.853L337.4 190.034L337.298 190.775L337.751 191.792L338.695 192.56L339.487 194.849L340.2 198.007L337.954 198.386L328.015 198.233L315.446 198.03L309.326 185.146L309.581 172.41L353.335 173.048" fill="#90ACBE"/>
<path d="M353.335 173.048L353.182 189.017L340.635 188.865L337.553 189.853L337.4 190.034L337.298 190.775L337.751 191.792L338.695 192.56L339.487 194.849L340.2 198.007L337.954 198.386L328.015 198.233L315.446 198.03L309.326 185.146L309.581 172.41L353.335 173.048" stroke="white" stroke-linejoin="bevel"/>
<path d="M328.015 198.233L337.954 198.386L340.2 198.007L339.487 194.849L338.695 192.56L337.75 191.792L337.298 190.774L337.4 190.034L337.553 189.853L340.635 188.865L353.182 189.017L353.153 192.198L359.421 192.249L359.376 198.64L356.191 198.618L356.033 211.298H352.899L347.186 211.247L346.552 210.868L346.371 210.512V210.36L347.061 209.874L346.931 208.269L346.756 208.094L327.863 207.811L328.015 198.233" fill="#B4CCDD"/>
<path d="M328.015 198.233L337.954 198.386L340.2 198.007L339.487 194.849L338.695 192.56L337.75 191.792L337.298 190.774L337.4 190.034L337.553 189.853L340.635 188.865L353.182 189.017L353.153 192.198L359.421 192.249L359.376 198.64L356.191 198.618L356.033 211.298H352.899L347.186 211.247L346.552 210.868L346.371 210.512V210.36L347.061 209.874L346.931 208.269L346.756 208.094L327.863 207.811L328.015 198.233" stroke="white" stroke-linejoin="bevel"/>
<path d="M315.011 229.968L350.529 230.454L352.543 239.06L351.954 239.387L342.881 255.107L342.598 255.486L341.987 255.972L341.122 256.249L340.155 256.125L339.312 255.842L321.742 248.174L321.211 247.818L320.854 247.389V247.36L320.803 247.23L320.645 246.852L319.451 241.405L314.807 242.653L315.011 229.968" fill="#B4CCDD"/>
<path d="M315.011 229.968L350.529 230.454L352.543 239.06L351.954 239.387L342.881 255.107L342.598 255.486L341.987 255.972L341.122 256.249L340.155 256.125L339.312 255.842L321.742 248.174L321.211 247.818L320.854 247.389V247.36L320.803 247.23L320.645 246.852L319.451 241.405L314.807 242.653L315.011 229.968" stroke="white" stroke-linejoin="bevel"/>
<path d="M315.446 198.03L328.015 198.233L327.863 207.811L346.756 208.094L346.931 208.269L347.061 209.874L346.371 210.36V210.512L346.552 210.868L347.186 211.247L352.899 211.298L352.774 223.012L350.529 230.454L315.011 229.968L315.169 214.004L315.446 198.03" fill="#90ACBE"/>
<path d="M315.446 198.03L328.015 198.233L327.863 207.811L346.756 208.094L346.931 208.269L347.061 209.874L346.371 210.36V210.512L346.552 210.868L347.186 211.247L352.899 211.298L352.774 223.012L350.529 230.454L315.011 229.968L315.169 214.004L315.446 198.03" stroke="white" stroke-linejoin="bevel"/>
<path d="M280.619 213.259L315.169 214.004L315.011 229.968L314.807 242.653L312.641 241.145L306.498 237.048L304.433 239.647L301.271 242.93L298.262 245.298L296.378 245.857L295.66 245.79L290.337 243.365L289.669 242.749L291.225 239.387L291.762 235.494L291.74 235.466L289.494 234.579L287.401 235.087L287.327 235.11H286.026L283.475 234.347L283.373 234.324L283.221 234.172L282.174 232.081L280.619 213.259" fill="#B4CCDD"/>
<path d="M280.619 213.259L315.169 214.004L315.011 229.968L314.807 242.653L312.641 241.145L306.498 237.048L304.433 239.647L301.271 242.93L298.262 245.298L296.378 245.857L295.66 245.79L290.337 243.365L289.669 242.749L291.225 239.387L291.762 235.494L291.74 235.466L289.494 234.579L287.401 235.087L287.327 235.11H286.026L283.475 234.347L283.373 234.324L283.221 234.172L282.174 232.081L280.619 213.259" stroke="white" stroke-linejoin="bevel"/>
<path d="M309.326 185.146L315.446 198.03L315.169 214.004L280.619 213.259L280.8 197.341L284.239 184.66L309.326 185.146Z" fill="#90ACBE" stroke="white" stroke-linejoin="bevel"/>
<path d="M249.519 203.963L252.675 204.042L258.948 203.155L271.517 201.364L274.679 198.674L276.795 197.267L280.8 197.341L280.619 213.259L282.174 232.081L278.531 226.097L269.198 223.17L266.901 222.656L265.73 223.317L263.309 226.374L260.096 229.256L260.046 229.306L260.023 229.284L258.309 228.668L255.458 224.085L254.083 222.916L252.754 222.04L252.143 221.994L252.522 209.337L249.388 209.286L249.519 203.963" fill="#B4CCDD"/>
<path d="M249.519 203.963L252.675 204.042L258.948 203.155L271.517 201.364L274.679 198.674L276.795 197.267L280.8 197.341L280.619 213.259L282.174 232.081L278.531 226.097L269.198 223.17L266.901 222.656L265.73 223.317L263.309 226.374L260.096 229.256L260.046 229.306L260.023 229.284L258.309 228.668L255.458 224.085L254.083 222.916L252.754 222.04L252.143 221.994L252.522 209.337L249.388 209.286L249.519 203.963" stroke="white" stroke-linejoin="bevel"/>
<path d="M252.958 171.138L284.318 171.924L284.239 184.66L280.8 197.341L276.795 197.267L274.679 198.674L271.517 201.364L258.948 203.155L252.675 204.042L249.519 203.963L249.694 198.42L246.226 196.448L239.931 196.273L240.112 189.882L240.672 170.754L252.958 171.138" fill="#90ACBE"/>
<path d="M252.958 171.138L284.318 171.924L284.239 184.66L280.8 197.341L276.795 197.267L274.679 198.674L271.517 201.364L258.948 203.155L252.675 204.042L249.519 203.963L249.694 198.42L246.226 196.448L239.931 196.273L240.112 189.882L240.672 170.754L252.958 171.138" stroke="white" stroke-linejoin="bevel"/>
<path d="M240.112 189.882L239.931 196.273L246.226 196.448L249.694 198.42L249.519 203.963L249.388 209.286L252.522 209.337L252.143 221.994L246.685 223.673L242.759 223.526L237.227 222.175L231.672 218.858L230.829 218.435H230.75L225.218 217.999L222.797 218.045L221.677 218.095L219.431 217.587L218.209 217.208L217.446 216.982L217.417 216.948V216.926L216.376 211.275L216.427 209.693L216.501 208.009L217.446 207.732L217.649 207.331V206.738L216.755 204.217L216.376 203.912L215.556 204.02L215.228 202.918L215.126 201.499L216.246 196.578L218.645 191.588L219.991 189.701L221.32 189.424L223.843 189.599L224.126 189.904L224.556 189.853L224.788 189.701L224.912 187.972L224.46 187.107L223.69 186.163L227.718 186.316L229.709 188.763L229.681 189.571L240.112 189.882" fill="#B4CCDD"/>
<path d="M240.112 189.882L239.931 196.273L246.226 196.448L249.694 198.42L249.519 203.963L249.388 209.286L252.522 209.337L252.143 221.994L246.685 223.673L242.759 223.526L237.227 222.175L231.672 218.858L230.829 218.435H230.75L225.218 217.999L222.797 218.045L221.677 218.095L219.431 217.587L218.209 217.208L217.446 216.982L217.417 216.948V216.926L216.376 211.275L216.427 209.693L216.501 208.009L217.446 207.732L217.649 207.331V206.738L216.755 204.217L216.376 203.912L215.556 204.02L215.228 202.918L215.126 201.499L216.246 196.578L218.645 191.588L219.991 189.701L221.32 189.424L223.843 189.599L224.126 189.904L224.556 189.853L224.788 189.701L224.912 187.972L224.46 187.107L223.69 186.163L227.718 186.316L229.709 188.763L229.681 189.571L240.112 189.882" stroke="white" stroke-linejoin="bevel"/>
<path d="M215.607 172.382L218.973 169.861L219.533 169.782L219.765 169.861L221.015 170.703L221.292 171.167L226.417 181.603L223.69 186.164L224.46 187.107L224.912 187.972L224.788 189.701L224.556 189.853L224.126 189.904L223.843 189.599L221.32 189.424L219.991 189.701L218.645 191.588L216.246 196.578L215.126 201.5L215.228 202.918L215.556 204.02L216.376 203.912L216.755 204.218L217.649 206.738V207.331L217.446 207.732L216.501 208.009V207.936L213.673 203.02L210.686 201.415L208.061 199.991L205.487 204.596L205.465 204.653L205.386 204.783H205.335L204.877 204.98L202.863 204.805L200.9 202.946L199.418 202.082L198.502 201.697L195.645 201.364L194.983 201.268L194.655 201.392L192.33 204.325L190.011 204.347H189.502L187.663 203.912L183.483 199.94L181.979 198.16L178.867 194.131L189.728 194.566L190.316 178.626L198.603 178.902L204.266 178.699L203.983 178.038L203.904 176.433L204.107 175.874L206.098 172.715L215.353 173.071L215.607 172.382" fill="#B4CCDD"/>
<path d="M215.607 172.382L218.973 169.861L219.533 169.782L219.765 169.861L221.015 170.703L221.292 171.167L226.417 181.603L223.69 186.164L224.46 187.107L224.912 187.972L224.788 189.701L224.556 189.853L224.126 189.904L223.843 189.599L221.32 189.424L219.991 189.701L218.645 191.588L216.246 196.578L215.126 201.5L215.228 202.918L215.556 204.02L216.376 203.912L216.755 204.218L217.649 206.738V207.331L217.446 207.732L216.501 208.009V207.936L213.673 203.02L210.686 201.415L208.061 199.991L205.487 204.596L205.465 204.653L205.386 204.783H205.335L204.877 204.98L202.863 204.805L200.9 202.946L199.418 202.082L198.502 201.697L195.645 201.364L194.983 201.268L194.655 201.392L192.33 204.325L190.011 204.347H189.502L187.663 203.912L183.483 199.94L181.979 198.16L178.867 194.131L189.728 194.566L190.316 178.626L198.603 178.902L204.266 178.699L203.983 178.038L203.904 176.433L204.107 175.874L206.098 172.715L215.353 173.071L215.607 172.382" stroke="white" stroke-linejoin="bevel"/>
<path d="M206.681 150.632L209.617 150.587L239.88 151.581L250.333 151.751L253.365 153.356L252.958 171.138L240.672 170.754L240.112 189.882L229.681 189.571L229.709 188.763L227.718 186.316L223.69 186.164L226.417 181.603L221.292 171.167L221.015 170.703L219.765 169.861L219.533 169.782L218.973 169.861L215.607 172.381L211.964 169.251L211.529 168.641L210.765 160.029L211.325 158.046L211.58 156.39L209.057 152.672L206.681 150.632" fill="#B4CCDD"/>
<path d="M206.681 150.632L209.617 150.587L239.88 151.581L250.333 151.751L253.365 153.356L252.958 171.138L240.672 170.754L240.112 189.882L229.681 189.571L229.709 188.763L227.718 186.316L223.69 186.164L226.417 181.603L221.292 171.167L221.015 170.703L219.765 169.861L219.533 169.782L218.973 169.861L215.607 172.381L211.964 169.251L211.529 168.641L210.765 160.029L211.325 158.046L211.58 156.39L209.057 152.672L206.681 150.632" stroke="white" stroke-linejoin="bevel"/>
<path d="M178.03 155.701L184.298 155.983L184.552 149.615L204.164 150.383L206.681 150.632L209.057 152.672L211.58 156.39L211.325 158.046L210.765 160.029L211.529 168.641L211.964 169.251L215.607 172.381L215.353 173.071L206.098 172.715L204.107 175.874L203.904 176.433L203.983 178.038L204.266 178.699L198.603 178.902L190.316 178.625L187.126 162.402L177.776 162.041L178.03 155.701" fill="#B4CCDD"/>
<path d="M178.03 155.701L184.298 155.983L184.552 149.615L204.164 150.383L206.681 150.632L209.057 152.672L211.58 156.39L211.325 158.046L210.765 160.029L211.529 168.641L211.964 169.251L215.607 172.381L215.353 173.071L206.098 172.715L204.107 175.874L203.904 176.433L203.983 178.038L204.266 178.699L198.603 178.902L190.316 178.625L187.126 162.402L177.776 162.041L178.03 155.701" stroke="white" stroke-linejoin="bevel"/>
<path d="M171.401 155.424L178.03 155.701L177.776 162.041L187.126 162.402L190.316 178.625L189.728 194.566L178.867 194.131L170.128 189.78L170.535 176.23L171.401 155.424" fill="#B4CCDD"/>
<path d="M171.401 155.424L178.03 155.701L177.776 162.041L187.126 162.402L190.316 178.625L189.728 194.566L178.867 194.131L170.128 189.78L170.535 176.23L171.401 155.424" stroke="white" stroke-linejoin="bevel"/>
<path d="M422.549 99.7984L429.36 99.7476L439.53 103.567L448.609 102.833H451.975L460.205 115.541L464.894 128.707L463.933 129.34L459.385 134.686L457.507 138.415L451.845 141.766L447.585 141.009L447.438 122.011L425.739 122.136L425.711 109.376L422.577 109.405L422.549 99.7984" fill="#90ACBE"/>
<path d="M422.549 99.7984L429.36 99.7476L439.53 103.567L448.609 102.833H451.975L460.205 115.541L464.894 128.707L463.933 129.34L459.385 134.686L457.507 138.415L451.845 141.766L447.585 141.009L447.438 122.011L425.739 122.136L425.711 109.376L422.577 109.405L422.549 99.7984" stroke="white" stroke-linejoin="bevel"/>
<path d="M425.739 122.136L447.438 122.011L447.585 141.009L441.295 140.851L437.335 141.794L425.869 148.157L423.675 149.157L411.92 151.626L409.776 151.525L409.935 141.393V134.997L416.174 135.025V132.985L417.039 128.634L419.285 122.164L425.739 122.136" fill="#B4CCDD"/>
<path d="M425.739 122.136L447.438 122.011L447.585 141.009L441.295 140.851L437.335 141.794L425.869 148.157L423.675 149.157L411.92 151.626L409.776 151.525L409.935 141.393V134.997L416.174 135.025V132.985L417.039 128.634L419.285 122.164L425.739 122.136" stroke="white" stroke-linejoin="bevel"/>
<path d="M382.704 141.308L409.935 141.393L409.776 151.525L408.605 151.7L408.091 152.005L405.211 155.927L403.56 158.984L403.328 179.693L384.616 179.648L379.643 169.127L379.745 154.068L382.653 154.102L382.704 141.308" fill="#B4CCDD"/>
<path d="M382.704 141.308L409.935 141.393L409.776 151.525L408.605 151.7L408.091 152.005L405.211 155.927L403.56 158.984L403.328 179.693L384.616 179.648L379.643 169.127L379.745 154.068L382.653 154.102L382.704 141.308" stroke="white" stroke-linejoin="bevel"/>
<path d="M371.967 133.115L372.352 133.494L372.708 133.595L377.121 133.878L377.222 133.799L377.302 133.42L377.092 132.505L377.579 130.001L381.046 128.736L382.777 128.278L382.704 141.308L382.653 154.102L379.745 154.068L379.643 169.127L362.691 169.782L362.939 132.301L366.028 131.307L371.967 133.115" fill="#B4CCDD"/>
<path d="M371.967 133.115L372.352 133.494L372.708 133.595L377.121 133.878L377.222 133.799L377.302 133.42L377.092 132.505L377.579 130.001L381.046 128.736L382.777 128.278L382.704 141.308L382.653 154.102L379.745 154.068L379.643 169.127L362.691 169.782L362.939 132.301L366.028 131.307L371.967 133.115" stroke="white" stroke-linejoin="bevel"/>
<path d="M341.45 128.187L371.945 128.577L371.967 133.115L366.028 131.307L362.939 132.301L362.691 169.782L353.538 165.002L340.913 167.234L341.348 134.618L341.45 128.187" fill="#90ACBE"/>
<path d="M341.45 128.187L371.945 128.577L371.967 133.115L366.028 131.307L362.939 132.301L362.691 169.782L353.538 165.002L340.913 167.234L341.348 134.618L341.45 128.187" stroke="white" stroke-linejoin="bevel"/>
<path d="M310.067 134.109L341.348 134.618L340.913 167.234L337.677 167.437L330.182 165.431L329.418 164.973L329.113 164.691L328.728 163.521L328.247 159.396L327.348 155.831L324.548 151.112L312.59 139.172L309.993 137.059L310.067 134.109" fill="#B4CCDD"/>
<path d="M310.067 134.109L341.348 134.618L340.913 167.234L337.677 167.437L330.182 165.431L329.418 164.973L329.113 164.691L328.728 163.521L328.247 159.396L327.348 155.831L324.548 151.112L312.59 139.172L309.993 137.059L310.067 134.109" stroke="white" stroke-linejoin="bevel"/>
<path d="M309.993 137.059L312.59 139.172L324.548 151.112L327.348 155.831L328.247 159.396L328.728 163.521L329.113 164.691L329.418 164.973L330.182 165.431L337.677 167.437L340.913 167.234L353.538 165.002L353.334 173.048L309.581 172.41L309.993 137.138V137.059Z" fill="#B4CCDD" stroke="white" stroke-linejoin="bevel"/>
<path d="M284.952 133.573L292.933 135.963L299.874 137.11L306.192 137.929L307.923 137.901L309.993 137.138L309.581 172.41L309.326 185.146L284.239 184.66L284.318 171.924L284.952 133.573" fill="#90ACBE"/>
<path d="M284.952 133.573L292.933 135.963L299.874 137.11L306.192 137.929L307.923 137.901L309.993 137.138L309.581 172.41L309.326 185.146L284.239 184.66L284.318 171.924L284.952 133.573" stroke="white" stroke-linejoin="bevel"/>
<path d="M272.434 120.531H272.745L272.796 121.316L272.541 133.341L284.952 133.573L284.318 171.924L252.958 171.138L253.365 153.356L253.574 153.056L253.778 145.535L253.676 137.997L253.982 126.436L254.18 120.05L272.434 120.531" fill="#B4CCDD"/>
<path d="M272.434 120.531H272.745L272.796 121.316L272.541 133.341L284.952 133.573L284.318 171.924L252.958 171.138L253.365 153.356L253.574 153.056L253.778 145.535L253.676 137.997L253.982 126.436L254.18 120.05L272.434 120.531" stroke="white" stroke-linejoin="bevel"/>
<path d="M278.99 107.947L310.35 108.54L310.067 134.109L309.993 137.059V137.138L307.923 137.901L306.192 137.929L299.874 137.11L292.933 135.963L284.952 133.573L272.541 133.341L272.796 121.316L272.745 120.531H272.434L278.99 107.947" fill="#90ACBE"/>
<path d="M278.99 107.947L310.35 108.54L310.067 134.109L309.993 137.059V137.138L307.923 137.901L306.192 137.929L299.874 137.11L292.933 135.963L284.952 133.573L272.541 133.341L272.796 121.316L272.745 120.531H272.434L278.99 107.947" stroke="white" stroke-linejoin="bevel"/>
<path d="M310.35 108.54L341.71 109.088L341.45 128.187L341.348 134.618L310.067 134.109L310.35 108.54" fill="#FFC107"/>
<path d="M310.35 108.54L341.71 109.088L341.45 128.187L341.348 134.618L310.067 134.109L310.35 108.54" stroke="white" stroke-linejoin="bevel"/>
<path d="M372.375 93.464L372.273 115.643L371.945 128.577L341.45 128.187L341.71 109.088L341.908 93.1532L372.375 93.464" fill="#90ACBE"/>
<path d="M372.375 93.464L372.273 115.643L371.945 128.577L341.45 128.187L341.71 109.088L341.908 93.1532L372.375 93.464" stroke="white" stroke-linejoin="bevel"/>
<path d="M397.49 115.745L397.462 122.164L403.633 122.136L403.656 134.997H409.935V141.393L382.704 141.308L382.777 128.278L381.046 128.736L377.579 130.001L377.092 132.505L377.302 133.42L377.222 133.799L377.121 133.878L372.708 133.595L372.352 133.493L371.967 133.115L371.945 128.577L372.273 115.643L397.49 115.745" fill="#90ACBE"/>
<path d="M397.49 115.745L397.462 122.164L403.633 122.136L403.656 134.997H409.935V141.393L382.704 141.308L382.777 128.278L381.046 128.736L377.579 130.001L377.092 132.505L377.302 133.42L377.222 133.799L377.121 133.878L372.708 133.595L372.352 133.493L371.967 133.115L371.945 128.577L372.273 115.643L397.49 115.745" stroke="white" stroke-linejoin="bevel"/>
<path d="M422.549 99.7984L422.577 109.405L425.711 109.376L425.739 122.136L419.285 122.164L417.039 128.634L416.174 132.985V135.025L409.935 134.997H403.656L403.633 122.136L397.462 122.164L397.49 115.745L397.513 99.7758L406.874 99.7984L419.393 99.8493L422.549 99.7984" fill="#90ACBE"/>
<path d="M422.549 99.7984L422.577 109.405L425.711 109.376L425.739 122.136L419.285 122.164L417.039 128.634L416.174 132.985V135.025L409.935 134.997H403.656L403.633 122.136L397.462 122.164L397.49 115.745L397.513 99.7758L406.874 99.7984L419.393 99.8493L422.549 99.7984" stroke="white" stroke-linejoin="bevel"/>
<path d="M441.595 83.6545L455.21 83.5979L455.233 86.1521L453.706 89.7346L453.474 89.9832L452.659 90.0228L451.488 91.0682L451.132 91.7519L450.9 95.9051L451.845 102.629L451.975 102.833H448.609L439.53 103.567L429.359 99.7476L422.549 99.7985L419.393 99.8493L422.781 77.337L431.147 77.2861L433.947 80.88L434.586 82.0214L434.332 83.0216L433.415 83.1402L433.562 83.4736L433.924 83.7053L441.595 83.6545" fill="#B4CCDD"/>
<path d="M441.595 83.6545L455.21 83.5979L455.233 86.1521L453.706 89.7346L453.474 89.9832L452.659 90.0228L451.488 91.0682L451.132 91.7519L450.9 95.9051L451.845 102.629L451.975 102.833H448.609L439.53 103.567L429.359 99.7476L422.549 99.7985L419.393 99.8493L422.781 77.337L431.147 77.2861L433.947 80.88L434.586 82.0214L434.332 83.0216L433.415 83.1402L433.562 83.4736L433.924 83.7053L441.595 83.6545" stroke="white" stroke-linejoin="bevel"/>
<path d="M419.902 45.3993L441.878 45.3258L447.941 51.6885L441.702 51.7393L441.544 70.8839L441.595 83.6544L433.924 83.7053L433.562 83.4736L433.415 83.1402L434.332 83.0215L434.586 82.0214L433.947 80.8799L431.147 77.2861L422.781 77.337L419.772 58.1868L419.902 45.3993" fill="#90ACBE"/>
<path d="M419.902 45.3993L441.878 45.3258L447.941 51.6885L441.702 51.7393L441.544 70.8839L441.595 83.6544L433.924 83.7053L433.562 83.4736L433.415 83.1402L434.332 83.0215L434.586 82.0214L433.947 80.8799L431.147 77.2861L422.781 77.337L419.772 58.1868L419.902 45.3993" stroke="white" stroke-linejoin="bevel"/>
<path d="M436.442 15.8292L443.077 15.8066L441.878 45.3258L419.902 45.3993L421.146 15.9084L436.442 15.8292" fill="#90ACBE"/>
<path d="M436.442 15.8292L443.077 15.8066L441.878 45.3258L419.902 45.3993L421.146 15.9084L436.442 15.8292" stroke="white" stroke-linejoin="bevel"/>
<path d="M410.896 15.9366L421.146 15.9083L419.902 45.3993L419.772 58.1868H408.758L408.786 15.9366H410.896Z" fill="#B4CCDD" stroke="white" stroke-linejoin="bevel"/>
<path d="M408.758 58.1868H419.772L422.781 77.3369L419.393 99.8493L406.874 99.7984L407.106 96.538L407.072 83.7561L391.398 83.677V77.3369L393.129 77.3652L408.758 77.4839V58.1868Z" fill="#90ACBE" stroke="white" stroke-linejoin="bevel"/>
<path d="M372.482 77.416L391.398 77.3369V83.677L407.072 83.7561L407.106 96.5379L406.874 99.7984L397.513 99.7758L397.49 115.745L372.273 115.643L372.375 93.464L372.482 77.416" fill="#B4CCDD"/>
<path d="M372.482 77.416L391.398 77.3369V83.677L407.072 83.7561L407.106 96.5379L406.874 99.7984L397.513 99.7758L397.49 115.745L372.273 115.643L372.375 93.464L372.482 77.416" stroke="white" stroke-linejoin="bevel"/>
<path d="M354.76 70.9178L360.982 70.9686L360.903 77.4161H372.482L372.375 93.464L341.908 93.1532L329.441 89.8193L329.622 77.0262L342.089 77.1844L342.168 70.7935L354.76 70.9178" fill="#90ACBE"/>
<path d="M354.76 70.9178L360.982 70.9686L360.903 77.4161H372.482L372.375 93.464L341.908 93.1532L329.441 89.8193L329.622 77.0262L342.089 77.1844L342.168 70.7935L354.76 70.9178" stroke="white" stroke-linejoin="bevel"/>
<path d="M310.808 76.3141L323.377 76.5458L329.622 77.0261L329.441 89.8192L341.908 93.1531L341.71 109.088L310.35 108.54L310.808 76.3141" fill="#B4CCDD"/>
<path d="M310.808 76.3141L323.377 76.5458L329.622 77.0261L329.441 89.8192L341.908 93.1531L341.71 109.088L310.35 108.54L310.808 76.3141" stroke="white" stroke-linejoin="bevel"/>
<path d="M279.55 75.6813L285.772 75.8112L310.808 76.3141L310.35 108.54L278.99 107.947L279.295 95.2157L279.374 84.5924L279.55 75.6813" fill="#B4CCDD"/>
<path d="M279.55 75.6813L285.772 75.8112L310.808 76.3141L310.35 108.54L278.99 107.947L279.295 95.2157L279.374 84.5924L279.55 75.6813" stroke="white" stroke-linejoin="bevel"/>
<path d="M254.615 75.0484L279.55 75.6813L279.374 84.5924L279.295 95.2157L278.99 107.947L272.434 120.531L254.18 120.05V100.923L254.615 75.0484" fill="#B4CCDD"/>
<path d="M254.615 75.0484L279.55 75.6813L279.374 84.5924L279.295 95.2157L278.99 107.947L272.434 120.531L254.18 120.05V100.923L254.615 75.0484" stroke="white" stroke-linejoin="bevel"/>
<path d="M253.982 126.436L253.676 137.997L253.778 145.535L253.574 153.056L253.365 153.356L250.333 151.751L239.88 151.581L209.617 150.587L210.279 124.989L253.982 126.436" fill="#90ACBE"/>
<path d="M253.982 126.436L253.676 137.997L253.778 145.535L253.574 153.056L253.365 153.356L250.333 151.751L239.88 151.581L209.617 150.587L210.279 124.989L253.982 126.436" stroke="white" stroke-linejoin="bevel"/>
<path d="M210.38 121.802L210.279 124.989L209.617 150.587L206.681 150.632L204.164 150.383L184.552 149.615L184.298 155.983L178.03 155.701L171.401 155.424L171.887 144.269L172.622 126.69L197.687 127.741L197.913 121.344L210.38 121.802" fill="#B4CCDD"/>
<path d="M210.38 121.802L210.279 124.989L209.617 150.587L206.681 150.632L204.164 150.383L184.552 149.615L184.298 155.983L178.03 155.701L171.401 155.424L171.887 144.269L172.622 126.69L197.687 127.741L197.913 121.344L210.38 121.802" stroke="white" stroke-linejoin="bevel"/>
<path d="M210.482 99.5385L254.18 100.923V120.05L253.982 126.436L210.279 124.989L210.38 121.802L210.482 99.5385" fill="#B4CCDD"/>
<path d="M210.482 99.5385L254.18 100.923V120.05L253.982 126.436L210.279 124.989L210.38 121.802L210.482 99.5385" stroke="white" stroke-linejoin="bevel"/>
<path d="M235.954 74.7433L254.615 75.0484L254.18 100.923L210.482 99.5385L210.714 84.7959L211.042 73.6923L235.954 74.7433" fill="#B4CCDD"/>
<path d="M235.954 74.7433L254.615 75.0484L254.18 100.923L210.482 99.5385L210.714 84.7959L211.042 73.6923L235.954 74.7433" stroke="white" stroke-linejoin="bevel"/>
<path d="M210.714 84.7959L210.482 99.5385L210.38 121.802L197.913 121.345L197.687 127.741L172.622 126.69L173.239 112.281L174.025 93.0742L179.58 89.842L185.808 91.3676L187.205 93.1024L187.714 93.5093L190.599 95.3175L192.432 95.9786L195.362 96.7188L196.256 96.8206L199.701 95.3909L199.904 95.2158L202.71 90.7856L203.7 87.4461L203.853 87.1409L204.418 86.638L205.866 85.5926L206.862 85.101L208.293 84.7959H210.714" fill="#B4CCDD"/>
<path d="M210.714 84.7959L210.482 99.5385L210.38 121.802L197.913 121.345L197.687 127.741L172.622 126.69L173.239 112.281L174.025 93.0742L179.58 89.842L185.808 91.3676L187.205 93.1024L187.714 93.5093L190.599 95.3175L192.432 95.9786L195.362 96.7188L196.256 96.8206L199.701 95.3909L199.904 95.2158L202.71 90.7856L203.7 87.4461L203.853 87.1409L204.418 86.638L205.866 85.5926L206.862 85.101L208.293 84.7959H210.714" stroke="white" stroke-linejoin="bevel"/>
<path d="M199.192 41.7885L198.247 67.177L198.552 73.2628L211.042 73.6923L210.714 84.7959H208.293L206.862 85.101L205.866 85.5926L204.418 86.638L203.853 87.1409L203.7 87.446L202.71 90.7856L199.904 95.2157L199.701 95.3909L196.256 96.8205L195.362 96.7188L192.432 95.9786L190.599 95.3174L187.714 93.5092L187.205 93.1024L185.808 91.3676L179.58 89.8419L174.025 93.0741L174.563 80.2697L175.762 47.6935L176.09 40.8392L199.192 41.7885" fill="#B4CCDD"/>
<path d="M199.192 41.7885L198.247 67.177L198.552 73.2628L211.042 73.6923L210.714 84.7959H208.293L206.862 85.101L205.866 85.5926L204.418 86.638L203.853 87.1409L203.7 87.446L202.71 90.7856L199.904 95.2157L199.701 95.3909L196.256 96.8205L195.362 96.7188L192.432 95.9786L190.599 95.3174L187.714 93.5092L187.205 93.1024L185.808 91.3676L179.58 89.8419L174.025 93.0741L174.563 80.2697L175.762 47.6935L176.09 40.8392L199.192 41.7885" stroke="white" stroke-linejoin="bevel"/>
<path d="M199.192 41.7885L217.214 42.2688L217.802 25.814L217.853 26.8593L219.176 28.029L220.144 28.385L225.246 28.1816L226.01 28.4359L226.852 28.9275L236.616 42.6191L236.491 49.3999L235.954 74.7433L211.042 73.6922L198.552 73.2628L198.247 67.177L199.192 41.7885Z" fill="#B4CCDD" stroke="white" stroke-linejoin="bevel"/>
<path d="M286.23 53.9262L285.772 75.8113L279.55 75.6813L254.615 75.0484L235.954 74.7433L236.491 49.4L243.274 49.6542L244.597 52.2762L245.259 53.039L246.125 53.6267L251.481 56.5029L254.666 57.9834L255.735 58.345L257.065 58.5145L261.12 58.1359L261.245 53.2933L286.23 53.9262" fill="#B4CCDD"/>
<path d="M286.23 53.9262L285.772 75.8113L279.55 75.6813L254.615 75.0484L235.954 74.7433L236.491 49.4L243.274 49.6542L244.597 52.2762L245.259 53.039L246.125 53.6267L251.481 56.5029L254.666 57.9834L255.735 58.345L257.065 58.5145L261.12 58.1359L261.245 53.2933L286.23 53.9262" stroke="white" stroke-linejoin="bevel"/>
<path d="M323.784 45.0715H323.813L323.377 76.5459L310.808 76.3142L285.772 75.8113L286.23 53.9262L286.456 44.3539L323.784 45.0715" fill="#90ACBE"/>
<path d="M323.784 45.0715H323.813L323.377 76.5459L310.808 76.3142L285.772 75.8113L286.23 53.9262L286.456 44.3539L323.784 45.0715" stroke="white" stroke-linejoin="bevel"/>
<path d="M347.316 45.3483L350.02 51.7675L348.719 51.7392L348.589 64.4759L354.834 64.5493L354.76 70.9177L342.168 70.7933L342.089 77.1843L329.622 77.0261L323.377 76.5457L323.813 45.0714L347.316 45.3483Z" fill="#B4CCDD" stroke="white" stroke-linejoin="bevel"/>
<path d="M354.76 70.9178L354.834 64.5494L348.589 64.476L348.719 51.7393L350.02 51.7676L350.274 53.2933L351.626 54.7737L352.412 55.2032L354.098 55.5818L368.63 58.0059L389.152 72.4491L393.129 77.3652L391.398 77.3369L372.482 77.416H360.903L360.982 70.9686L354.76 70.9178" fill="#90ACBE"/>
<path d="M354.76 70.9178L354.834 64.5494L348.589 64.476L348.719 51.7393L350.02 51.7676L350.274 53.2933L351.626 54.7737L352.412 55.2032L354.098 55.5818L368.63 58.0059L389.152 72.4491L393.129 77.3652L391.398 77.3369L372.482 77.416H360.903L360.982 70.9686L354.76 70.9178" stroke="white" stroke-linejoin="bevel"/>
<path d="M365.44 15.7557L378.416 15.8292L408.786 15.9366L408.758 58.1867V77.4838L393.129 77.3652L389.152 72.4491L368.63 58.0059L354.098 55.5818L352.412 55.2032L351.626 54.7737L350.274 53.2932L350.02 51.7676L347.316 45.3484L347.621 41.6811L350.732 38.3189L359.274 34.273L360.422 34.4991L360.852 34.3465L365.162 31.702L365.44 15.7557" fill="#B4CCDD"/>
<path d="M365.44 15.7557L378.416 15.8292L408.786 15.9366L408.758 58.1867V77.4838L393.129 77.3652L389.152 72.4491L368.63 58.0059L354.098 55.5818L352.412 55.2032L351.626 54.7737L350.274 53.2932L350.02 51.7676L347.316 45.3484L347.621 41.6811L350.732 38.3189L359.274 34.273L360.422 34.4991L360.852 34.3465L365.162 31.702L365.44 15.7557" stroke="white" stroke-linejoin="bevel"/>
<path d="M324.243 15.3037L342.446 15.5297L365.44 15.7558L365.163 31.702L360.852 34.3465L360.422 34.4991L359.274 34.2731L350.732 38.319L347.621 41.6811L347.316 45.3484L323.813 45.0715H323.784L324.243 15.3037Z" fill="#90ACBE" stroke="white" stroke-linejoin="bevel"/>
<path d="M304.586 14.9647L324.243 15.3037L323.784 45.0715L286.456 44.3539L286.156 44.3313L286.711 18.7619L286.66 14.6313L304.586 14.9647" fill="#B4CCDD"/>
<path d="M304.586 14.9647L324.243 15.3037L323.784 45.0715L286.456 44.3539L286.156 44.3313L286.711 18.7619L286.66 14.6313L304.586 14.9647" stroke="white" stroke-linejoin="bevel"/>
<path d="M273.073 14.3318L286.66 14.6313L286.711 18.7619L286.156 44.3313L286.456 44.3539L286.23 53.9262L261.245 53.2933L261.629 13.9702L273.073 14.3318" fill="#B4CCDD"/>
<path d="M273.073 14.3318L286.66 14.6313L286.711 18.7619L286.156 44.3313L286.456 44.3539L286.23 53.9262L261.245 53.2933L261.629 13.9702L273.073 14.3318" stroke="white" stroke-linejoin="bevel"/>
<path d="M208.955 12.2636L235.27 13.1564L261.629 13.9701L261.245 53.2932L261.12 58.1359L257.065 58.5145L255.735 58.345L254.666 57.9833L251.481 56.5028L246.125 53.6266L245.259 53.039L244.597 52.2761L243.274 49.6542L236.491 49.3999L236.616 42.6191L226.852 28.9275L226.01 28.4359L225.246 28.1816L220.144 28.385L219.176 28.029L217.853 26.8593L217.802 25.814L208.955 12.2636" fill="#B4CCDD"/>
<path d="M208.955 12.2636L235.27 13.1564L261.629 13.9701L261.245 53.2932L261.12 58.1359L257.065 58.5145L255.735 58.345L254.666 57.9833L251.481 56.5028L246.125 53.6266L245.259 53.039L244.597 52.2761L243.274 49.6542L236.491 49.3999L236.616 42.6191L226.852 28.9275L226.01 28.4359L225.246 28.1816L220.144 28.385L219.176 28.029L217.853 26.8593L217.802 25.814L208.955 12.2636" stroke="white" stroke-linejoin="bevel"/>
<path d="M177.363 10.8622L204.034 12.0828L208.955 12.2636L217.802 25.814L217.214 42.2688L199.192 41.7884L176.09 40.8391L177.363 10.8622" fill="#B4CCDD"/>
<path d="M177.363 10.8622L204.034 12.0828L208.955 12.2636L217.802 25.814L217.214 42.2688L199.192 41.7884L176.09 40.8391L177.363 10.8622" stroke="white" stroke-linejoin="bevel"/>
<path d="M122.884 8.57373L140.911 9.33657L172.345 10.6306L177.363 10.8623L176.09 40.8391L175.762 47.6934L144.198 46.2864L120.463 45.0941L121.815 19.5417L122.296 19.5248L122.884 8.57373" fill="#B4CCDD"/>
<path d="M122.884 8.57373L140.911 9.33657L172.345 10.6306L177.363 10.8623L176.09 40.8391L175.762 47.6934L144.198 46.2864L120.463 45.0941L121.815 19.5417L122.296 19.5248L122.884 8.57373" stroke="white" stroke-linejoin="bevel"/>
</svg>
